<?xml version="1.0" encoding="UTF-8" standalone="no"?>
<svg width="11px" height="14px" viewBox="0 0 11 14" version="1.1" xmlns="http://www.w3.org/2000/svg" xmlns:xlink="http://www.w3.org/1999/xlink">
    <!-- Generator: sketchtool 40.1 (33804) - http://www.bohemiancoding.com/sketch -->
    <title>E92CC7DC-05C5-4EB7-B263-87F4BB923429</title>
    <desc>Created with sketchtool.</desc>
    <defs></defs>
    <g id="Landing-Page" stroke="none" stroke-width="1" fill="none" fill-rule="evenodd">
        <g id="Text-Formatter" transform="translate(-794.000000, -514.000000)">
            <g id="Group-15" transform="translate(774.000000, 497.000000)">
                <g id="bold-white" transform="translate(13.000000, 13.000000)">
                    <g id="Group">
                        <path d="M15.6,10.79 C16.57,10.12 17.25,9.02 17.25,8 C17.25,5.74 15.5,4 13.25,4 L7,4 L7,18 L14.04,18 C16.13,18 17.75,16.3 17.75,14.21 C17.75,12.69 16.89,11.39 15.6,10.79 L15.6,10.79 Z M10,6.5 L13,6.5 C13.83,6.5 14.5,7.17 14.5,8 C14.5,8.83 13.83,9.5 13,9.5 L10,9.5 L10,6.5 L10,6.5 Z M13.5,15.5 L10,15.5 L10,12.5 L13.5,12.5 C14.33,12.5 15,13.17 15,14 C15,14.83 14.33,15.5 13.5,15.5 L13.5,15.5 Z" id="Shape" fill="#FFFFFF"></path>
                        <polygon id="Shape" points="0 0 24 0 24 24 0 24"></polygon>
                    </g>
                </g>
            </g>
        </g>
    </g>
</svg>