<?xml version="1.0" encoding="UTF-8" standalone="no"?>
<svg width="22px" height="22px" viewBox="0 0 22 22" version="1.1" xmlns="http://www.w3.org/2000/svg" xmlns:xlink="http://www.w3.org/1999/xlink">
    <!-- Generator: sketchtool 40.3 (33839) - http://www.bohemiancoding.com/sketch -->
    <title>FFA44E3B-7FFE-4A3B-AD78-D9B1C85ED300</title>
    <desc>Created with sketchtool.</desc>
    <defs></defs>
    <g id="Landing-Page" stroke="none" stroke-width="1" fill="none" fill-rule="evenodd">
        <g id="Landing-Page-1200---Report----Officers---Edit" transform="translate(-446.000000, -455.000000)" fill="#D001CD">
            <g id="Cell-Elements/Contact-Add" transform="translate(387.000000, 455.000000)">
                <path d="M70,22 C76.0751322,22 81,17.0751322 81,11 C81,4.92486775 76.0751322,0 70,0 C63.9248678,0 59,4.92486775 59,11 C59,17.0751322 63.9248678,22 70,22 Z M70,21 C75.5228475,21 80,16.5228475 80,11 C80,5.4771525 75.5228475,1 70,1 C64.4771525,1 60,5.4771525 60,11 C60,16.5228475 64.4771525,21 70,21 Z M69.5,10.5 L69.5,5.5 L70.5,5.5 L70.5,10.5 L75.5,10.5 L75.5,11.5 L70.5,11.5 L70.5,16.5 L69.5,16.5 L69.5,11.5 L64.5,11.5 L64.5,10.5 L69.5,10.5 Z" id="Contact-Add"></path>
            </g>
        </g>
    </g>
</svg>