<?xml version="1.0" encoding="utf-8"?>
<!-- Generator: Adobe Illustrator 18.0.0, SVG Export Plug-In . SVG Version: 6.00 Build 0)  -->
<!DOCTYPE svg PUBLIC "-//W3C//DTD SVG 1.1//EN" "http://www.w3.org/Graphics/SVG/1.1/DTD/svg11.dtd">
<svg version="1.1" xmlns="http://www.w3.org/2000/svg" xmlns:xlink="http://www.w3.org/1999/xlink" x="0px" y="0px" width="43px"
	 height="28px" viewBox="0 0 43 28" enable-background="new 0 0 43 28" xml:space="preserve">
<g id="Layer_1">
	<g>
		<path opacity="0.3" fill="#262626" d="M41,28H2c-1.105,0-2-0.895-2-2V2c0-1.105,0.895-2,2-2l39,0c1.105,0,2,0.895,2,2v24
			C43,27.105,42.105,28,41,28z"/>
		<g>
			<path fill="none" d="M9.5,2h24v24h-24V2z"/>
			<path fill="#005EF4" d="M13.4,14c0-1.71,1.39-3.1,3.1-3.1h4V9h-4c-2.76,0-5,2.24-5,5s2.24,5,5,5h4v-1.9h-4
				C14.79,17.1,13.4,15.71,13.4,14z M17.5,15h8v-2h-8V15z M26.5,9h-4v1.9h4c1.71,0,3.1,1.39,3.1,3.1s-1.39,3.1-3.1,3.1h-4V19h4
				c2.76,0,5-2.24,5-5S29.26,9,26.5,9z"/>
		</g>
	</g>
</g>
<g id="Spec">
</g>
</svg>
