<?xml version="1.0" encoding="utf-8"?>
<!-- Generator: Adobe Illustrator 18.0.0, SVG Export Plug-In . SVG Version: 6.00 Build 0)  -->
<!DOCTYPE svg PUBLIC "-//W3C//DTD SVG 1.1//EN" "http://www.w3.org/Graphics/SVG/1.1/DTD/svg11.dtd">
<svg version="1.1" xmlns="http://www.w3.org/2000/svg" xmlns:xlink="http://www.w3.org/1999/xlink" x="0px" y="0px" width="90px"
	 height="25px" viewBox="0 0 90 25" enable-background="new 0 0 90 25" xml:space="preserve">
<g id="Layer_1">
	<g>
		<path fill="#2F292B" d="M0.483,13.924v-2.812c0-3.445,0.9-6.149,2.7-8.112s4.29-2.944,7.468-2.944
			c1.449,0,2.776,0.223,3.979,0.668s2.206,1.055,3.006,1.828c0.8,0.773,1.423,1.679,1.867,2.716
			c0.444,1.037,0.667,2.147,0.667,3.331V9.16h-4.869c0-1.291-0.41-2.387-1.229-3.288S12.126,4.52,10.687,4.52
			c-1.556,0-2.781,0.569-3.676,1.708s-1.342,2.777-1.342,4.915v2.803c0,2.149,0.447,3.776,1.342,4.88s2.131,1.655,3.711,1.655
			c1.45,0,2.576-0.423,3.377-1.27c0.801-0.846,1.202-1.911,1.202-3.195h4.869v0.58c0,1.125-0.216,2.188-0.649,3.19
			c-0.432,1.002-1.043,1.887-1.832,2.654c-0.789,0.768-1.794,1.377-3.016,1.828c-1.221,0.451-2.568,0.677-4.041,0.677
			c-3.19,0-5.679-0.97-7.468-2.909C1.378,20.097,0.483,17.393,0.483,13.924z"/>
		<path fill="#2F292B" d="M24.97,24.488V0.494h9.792c1.292,0,2.46,0.214,3.505,0.642s1.911,1.014,2.598,1.758
			c0.687,0.744,1.212,1.608,1.576,2.593c0.364,0.984,0.546,2.045,0.546,3.182c0,2.357-0.732,4.288-2.197,5.793
			s-3.486,2.258-6.064,2.258h-4.641v7.77H24.97z M30.067,12.711h2.684c1.66,0,2.917-0.311,3.771-0.932
			c0.854-0.621,1.28-1.658,1.28-3.111c0-1.289-0.359-2.285-1.079-2.988s-1.722-1.055-3.008-1.055h-3.648V12.711z"/>
		<path fill="#2F292B" d="M47.101,24.488V0.494h8.966c1.895,0,3.539,0.284,4.931,0.854s2.509,1.391,3.352,2.465
			c0.842,1.073,1.462,2.323,1.86,3.749c0.398,1.426,0.597,3.045,0.597,4.859s-0.199,3.439-0.597,4.874
			c-0.397,1.435-1.015,2.699-1.851,3.794c-0.836,1.096-1.954,1.936-3.352,2.521c-1.398,0.585-3.044,0.878-4.939,0.878H47.101z
			 M52.198,20.217h3.146c1.02,0,1.901-0.129,2.646-0.386c0.744-0.258,1.395-0.677,1.951-1.256s0.976-1.369,1.257-2.37
			s0.422-2.222,0.422-3.661c0-5.186-2.092-7.778-6.275-7.778h-3.146V20.217z"/>
		<path fill="#2F292B" d="M71.499,24.488V0.494h9.792c1.292,0,2.46,0.214,3.505,0.642s1.911,1.014,2.598,1.758
			c0.687,0.744,1.212,1.608,1.576,2.593c0.364,0.984,0.546,2.045,0.546,3.182c0,2.357-0.732,4.288-2.197,5.793
			s-3.486,2.258-6.064,2.258h-4.641v7.77H71.499z M76.597,12.711h2.684c1.66,0,2.917-0.311,3.771-0.932
			c0.854-0.621,1.28-1.658,1.28-3.111c0-1.289-0.359-2.285-1.079-2.988s-1.722-1.055-3.008-1.055h-3.648V12.711z"/>
	</g>
</g>
<g id="Spec">
</g>
</svg>
