<svg xmlns="http://www.w3.org/2000/svg" width="148" height="90" viewBox="0 0 148 90">
    <path fill="#FFF" fill-opacity=".5" fill-rule="evenodd" d="M142.402 5.809h3.651V1.428h-3.651v4.381zm0 4.869h3.651V6.296h-3.651v4.382zm0 4.868h3.651v-4.381h-3.651v4.381zm0 4.138h3.651v-3.651h-3.651v3.651zm0 5.599h3.651v-3.651h-3.651v3.651zm0 4.868h3.651v-4.382h-3.651v4.382zm0 4.869h3.651v-4.381h-3.651v4.381zm0 4.868h3.651v-4.381h-3.651v4.381zm0 4.869h3.651v-4.382h-3.651v4.382zm0 4.868h3.651v-4.382h-3.651v4.382zm0 4.868h3.651v-4.381h-3.651v4.381zm0 4.869h3.651v-4.381h-3.651v4.381zm0 4.868h3.651v-4.382h-3.651v4.382zm0 4.138h3.651v-3.651h-3.651v3.651zm0 5.599h3.651v-3.651h-3.651v3.651zm0 4.868h3.651v-4.381h-3.651v4.381zm0 4.869h3.651v-4.382h-3.651v4.382zm0 4.868h3.651v-4.381h-3.651v4.381zm-4.869-82.763h4.381V1.428h-4.381v4.381zm0 4.869h4.381V6.296h-4.381v4.382zm0 4.868h4.381v-4.381h-4.381v4.381zm0 4.138h4.381v-3.651h-4.381v3.651zm0 5.599h4.381v-3.651h-4.381v3.651zm0 4.868h4.381v-4.382h-4.381v4.382zm0 4.869h4.381v-4.381h-4.381v4.381zm0 4.868h4.381v-4.381h-4.381v4.381zm0 4.869h4.381v-4.382h-4.381v4.382zm0 4.868h4.381v-4.382h-4.381v4.382zm0 4.868h4.381v-4.381h-4.381v4.381zm0 4.869h4.381v-4.381h-4.381v4.381zm0 4.868h4.381v-4.382h-4.381v4.382zm0 4.138h4.381v-3.651h-4.381v3.651zm0 5.599h4.381v-3.651h-4.381v3.651zm0 4.868h4.381v-4.381h-4.381v4.381zm0 4.869h4.381v-4.382h-4.381v4.382zm0 4.868h4.381v-4.381h-4.381v4.381zm-4.869-82.763h4.382V1.428h-4.382v4.381zm0 4.869h4.382V6.296h-4.382v4.382zm0 4.868h4.382v-4.381h-4.382v4.381zm0 4.138h4.382v-3.651h-4.382v3.651zm0 5.599h4.382v-3.651h-4.382v3.651zm0 4.868h4.382v-4.382h-4.382v4.382zm0 4.869h4.382v-4.381h-4.382v4.381zm0 4.868h4.382v-4.381h-4.382v4.381zm0 4.869h4.382v-4.382h-4.382v4.382zm0 4.868h4.382v-4.382h-4.382v4.382zm0 4.868h4.382v-4.381h-4.382v4.381zm0 4.869h4.382v-4.381h-4.382v4.381zm0 4.868h4.382v-4.382h-4.382v4.382zm0 4.138h4.382v-3.651h-4.382v3.651zm0 5.599h4.382v-3.651h-4.382v3.651zm0 4.868h4.382v-4.381h-4.382v4.381zm0 4.869h4.382v-4.382h-4.382v4.382zm0 4.868h4.382v-4.381h-4.382v4.381zm-4.868-82.763h4.382V1.428h-4.382v4.381zm0 4.869h4.382V6.296h-4.382v4.382zm0 4.868h4.382v-4.381h-4.382v4.381zm0 4.138h4.382v-3.651h-4.382v3.651zm0 5.599h4.382v-3.651h-4.382v3.651zm0 4.868h4.382v-4.382h-4.382v4.382zm0 4.869h4.382v-4.381h-4.382v4.381zm0 4.868h4.382v-4.381h-4.382v4.381zm0 4.869h4.382v-4.382h-4.382v4.382zm0 4.868h4.382v-4.382h-4.382v4.382zm0 4.868h4.382v-4.381h-4.382v4.381zm0 4.869h4.382v-4.381h-4.382v4.381zm0 4.868h4.382v-4.382h-4.382v4.382zm0 4.138h4.382v-3.651h-4.382v3.651zm0 5.599h4.382v-3.651h-4.382v3.651zm0 4.868h4.382v-4.381h-4.382v4.381zm0 4.869h4.382v-4.382h-4.382v4.382zm0 4.868h4.382v-4.381h-4.382v4.381zm-4.868-82.763h4.382V1.428h-4.382v4.381zm0 4.869h4.382V6.296h-4.382v4.382zm0 4.868h4.382v-4.381h-4.382v4.381zm0 4.138h4.382v-3.651h-4.382v3.651zm0 5.599h4.382v-3.651h-4.382v3.651zm0 4.868h4.382v-4.382h-4.382v4.382zm0 4.869h4.382v-4.381h-4.382v4.381zm0 4.868h4.382v-4.381h-4.382v4.381zm0 4.869h4.382v-4.382h-4.382v4.382zm0 4.868h4.382v-4.382h-4.382v4.382zm0 4.868h4.382v-4.381h-4.382v4.381zm0 4.869h4.382v-4.381h-4.382v4.381zm0 4.868h4.382v-4.382h-4.382v4.382zm0 4.138h4.382v-3.651h-4.382v3.651zm0 5.599h4.382v-3.651h-4.382v3.651zm0 4.868h4.382v-4.381h-4.382v4.381zm0 4.869h4.382v-4.382h-4.382v4.382zm0 4.868h4.382v-4.381h-4.382v4.381zm-4.869-82.763h4.381V1.428h-4.381v4.381zm0 4.869h4.381V6.296h-4.381v4.382zm0 4.868h4.381v-4.381h-4.381v4.381zm0 4.138h4.381v-3.651h-4.381v3.651zm0 5.599h4.381v-3.651h-4.381v3.651zm0 4.868h4.381v-4.382h-4.381v4.382zm0 4.869h4.381v-4.381h-4.381v4.381zm0 4.868h4.381v-4.381h-4.381v4.381zm0 4.869h4.381v-4.382h-4.381v4.382zm0 4.868h4.381v-4.382h-4.381v4.382zm0 4.868h4.381v-4.381h-4.381v4.381zm0 4.869h4.381v-4.381h-4.381v4.381zm0 4.868h4.381v-4.382h-4.381v4.382zm0 4.138h4.381v-3.651h-4.381v3.651zm0 5.599h4.381v-3.651h-4.381v3.651zm0 4.868h4.381v-4.381h-4.381v4.381zm0 4.869h4.381v-4.382h-4.381v4.382zm0 4.868h4.381v-4.381h-4.381v4.381zM113.19 5.809h4.382V1.428h-4.382v4.381zm0 4.869h4.382V6.296h-4.382v4.382zm0 4.868h4.382v-4.381h-4.382v4.381zm0 4.138h4.382v-3.651h-4.382v3.651zm0 5.599h4.382v-3.651h-4.382v3.651zm0 4.868h4.382v-4.382h-4.382v4.382zm0 4.869h4.382v-4.381h-4.382v4.381zm0 4.868h4.382v-4.381h-4.382v4.381zm0 4.869h4.382v-4.382h-4.382v4.382zm0 4.868h4.382v-4.382h-4.382v4.382zm0 4.868h4.382v-4.381h-4.382v4.381zm0 4.869h4.382v-4.381h-4.382v4.381zm0 4.868h4.382v-4.382h-4.382v4.382zm0 4.138h4.382v-3.651h-4.382v3.651zm0 5.599h4.382v-3.651h-4.382v3.651zm0 4.868h4.382v-4.381h-4.382v4.381zm0 4.869h4.382v-4.382h-4.382v4.382zm0 4.868h4.382v-4.381h-4.382v4.381zm-4.868-82.763h4.382V1.428h-4.382v4.381zm0 4.869h4.382V6.296h-4.382v4.382zm0 4.868h4.382v-4.381h-4.382v4.381zm0 4.138h4.382v-3.651h-4.382v3.651zm0 5.599h4.382v-3.651h-4.382v3.651zm0 4.868h4.382v-4.382h-4.382v4.382zm0 4.869h4.382v-4.381h-4.382v4.381zm0 4.868h4.382v-4.381h-4.382v4.381zm0 4.869h4.382v-4.382h-4.382v4.382zm0 4.868h4.382v-4.382h-4.382v4.382zm0 4.868h4.382v-4.381h-4.382v4.381zm0 4.869h4.382v-4.381h-4.382v4.381zm0 4.868h4.382v-4.382h-4.382v4.382zm0 4.138h4.382v-3.651h-4.382v3.651zm0 5.599h4.382v-3.651h-4.382v3.651zm0 4.868h4.382v-4.381h-4.382v4.381zm0 4.869h4.382v-4.382h-4.382v4.382zm0 4.868h4.382v-4.381h-4.382v4.381zm-4.868-82.763h4.382V1.428h-4.382v4.381zm0 4.869h4.382V6.296h-4.382v4.382zm0 4.868h4.382v-4.381h-4.382v4.381zm0 4.138h4.382v-3.651h-4.382v3.651zm0 5.599h4.382v-3.651h-4.382v3.651zm0 4.868h4.382v-4.382h-4.382v4.382zm0 4.869h4.382v-4.381h-4.382v4.381zm0 4.868h4.382v-4.381h-4.382v4.381zm0 4.869h4.382v-4.382h-4.382v4.382zm0 4.868h4.382v-4.382h-4.382v4.382zm0 4.868h4.382v-4.381h-4.382v4.381zm0 4.869h4.382v-4.381h-4.382v4.381zm0 4.868h4.382v-4.382h-4.382v4.382zm0 4.138h4.382v-3.651h-4.382v3.651zm0 5.599h4.382v-3.651h-4.382v3.651zm0 4.868h4.382v-4.381h-4.382v4.381zm0 4.869h4.382v-4.382h-4.382v4.382zm0 4.868h4.382v-4.381h-4.382v4.381zM99.316 5.809h3.651V1.428h-3.651v4.381zm0 4.869h3.651V6.296h-3.651v4.382zm0 4.868h3.651v-4.381h-3.651v4.381zm0 4.138h3.651v-3.651h-3.651v3.651zm0 5.599h3.651v-3.651h-3.651v3.651zm0 4.868h3.651v-4.382h-3.651v4.382zm0 4.869h3.651v-4.381h-3.651v4.381zm0 4.868h3.651v-4.381h-3.651v4.381zm0 4.869h3.651v-4.382h-3.651v4.382zm0 4.868h3.651v-4.382h-3.651v4.382zm0 4.868h3.651v-4.381h-3.651v4.381zm0 4.869h3.651v-4.381h-3.651v4.381zm0 4.868h3.651v-4.382h-3.651v4.382zm0 4.138h3.651v-3.651h-3.651v3.651zm0 5.599h3.651v-3.651h-3.651v3.651zm0 4.868h3.651v-4.381h-3.651v4.381zm0 4.869h3.651v-4.382h-3.651v4.382zm0 4.868h3.651v-4.381h-3.651v4.381zM93.717 5.809h3.651V1.428h-3.651v4.381zm0 4.869h3.651V6.296h-3.651v4.382zm0 4.868h3.651v-4.381h-3.651v4.381zm0 4.138h3.651v-3.651h-3.651v3.651zm0 5.599h3.651v-3.651h-3.651v3.651zm0 4.868h3.651v-4.382h-3.651v4.382zm0 4.869h3.651v-4.381h-3.651v4.381zm0 4.868h3.651v-4.381h-3.651v4.381zm0 4.869h3.651v-4.382h-3.651v4.382zm0 4.868h3.651v-4.382h-3.651v4.382zm0 4.868h3.651v-4.381h-3.651v4.381zm0 4.869h3.651v-4.381h-3.651v4.381zm0 4.868h3.651v-4.382h-3.651v4.382zm0 4.138h3.651v-3.651h-3.651v3.651zm0 5.599h3.651v-3.651h-3.651v3.651zm0 4.868h3.651v-4.381h-3.651v4.381zm0 4.869h3.651v-4.382h-3.651v4.382zm0 4.868h3.651v-4.381h-3.651v4.381zM88.848 5.809h4.382V1.428h-4.382v4.381zm0 4.869h4.382V6.296h-4.382v4.382zm0 4.868h4.382v-4.381h-4.382v4.381zm0 4.138h4.382v-3.651h-4.382v3.651zm0 5.599h4.382v-3.651h-4.382v3.651zm0 4.868h4.382v-4.382h-4.382v4.382zm0 4.869h4.382v-4.381h-4.382v4.381zm0 4.868h4.382v-4.381h-4.382v4.381zm0 4.869h4.382v-4.382h-4.382v4.382zm0 4.868h4.382v-4.382h-4.382v4.382zm0 4.868h4.382v-4.381h-4.382v4.381zm0 4.869h4.382v-4.381h-4.382v4.381zm0 4.868h4.382v-4.382h-4.382v4.382zm0 4.138h4.382v-3.651h-4.382v3.651zm0 5.599h4.382v-3.651h-4.382v3.651zm0 4.868h4.382v-4.381h-4.382v4.381zm0 4.869h4.382v-4.382h-4.382v4.382zm0 4.868h4.382v-4.381h-4.382v4.381zM83.98 5.809h4.381V1.428H83.98v4.381zm0 4.869h4.381V6.296H83.98v4.382zm0 4.868h4.381v-4.381H83.98v4.381zm0 4.138h4.381v-3.651H83.98v3.651zm0 5.599h4.381v-3.651H83.98v3.651zm0 4.868h4.381v-4.382H83.98v4.382zm0 4.869h4.381v-4.381H83.98v4.381zm0 4.868h4.381v-4.381H83.98v4.381zm0 4.869h4.381v-4.382H83.98v4.382zm0 4.868h4.381v-4.382H83.98v4.382zm0 4.868h4.381v-4.381H83.98v4.381zm0 4.869h4.381v-4.381H83.98v4.381zm0 4.868h4.381v-4.382H83.98v4.382zm0 4.138h4.381v-3.651H83.98v3.651zm0 5.599h4.381v-3.651H83.98v3.651zm0 4.868h4.381v-4.381H83.98v4.381zm0 4.869h4.381v-4.382H83.98v4.382zm0 4.868h4.381v-4.381H83.98v4.381zM79.111 5.809h4.382V1.428h-4.382v4.381zm0 4.869h4.382V6.296h-4.382v4.382zm0 4.868h4.382v-4.381h-4.382v4.381zm0 4.138h4.382v-3.651h-4.382v3.651zm0 5.599h4.382v-3.651h-4.382v3.651zm0 4.868h4.382v-4.382h-4.382v4.382zm0 4.869h4.382v-4.381h-4.382v4.381zm0 4.868h4.382v-4.381h-4.382v4.381zm0 4.869h4.382v-4.382h-4.382v4.382zm0 4.868h4.382v-4.382h-4.382v4.382zm0 4.868h4.382v-4.381h-4.382v4.381zm0 4.869h4.382v-4.381h-4.382v4.381zm0 4.868h4.382v-4.382h-4.382v4.382zm0 4.138h4.382v-3.651h-4.382v3.651zm0 5.599h4.382v-3.651h-4.382v3.651zm0 4.868h4.382v-4.381h-4.382v4.381zm0 4.869h4.382v-4.382h-4.382v4.382zm0 4.868h4.382v-4.381h-4.382v4.381zM74.243 5.809h4.382V1.428h-4.382v4.381zm0 4.869h4.382V6.296h-4.382v4.382zm0 4.868h4.382v-4.381h-4.382v4.381zm0 4.138h4.382v-3.651h-4.382v3.651zm0 5.599h4.382v-3.651h-4.382v3.651zm0 4.868h4.382v-4.382h-4.382v4.382zm0 4.869h4.382v-4.381h-4.382v4.381zm0 4.868h4.382v-4.381h-4.382v4.381zm0 4.869h4.382v-4.382h-4.382v4.382zm0 4.868h4.382v-4.382h-4.382v4.382zm0 4.868h4.382v-4.381h-4.382v4.381zm0 4.869h4.382v-4.381h-4.382v4.381zm0 4.868h4.382v-4.382h-4.382v4.382zm0 4.138h4.382v-3.651h-4.382v3.651zm0 5.599h4.382v-3.651h-4.382v3.651zm0 4.868h4.382v-4.381h-4.382v4.381zm0 4.869h4.382v-4.382h-4.382v4.382zm0 4.868h4.382v-4.381h-4.382v4.381zM69.375 5.809h4.382V1.428h-4.382v4.381zm0 4.869h4.382V6.296h-4.382v4.382zm0 4.868h4.382v-4.381h-4.382v4.381zm0 4.138h4.382v-3.651h-4.382v3.651zm0 5.599h4.382v-3.651h-4.382v3.651zm0 4.868h4.382v-4.382h-4.382v4.382zm0 4.869h4.382v-4.381h-4.382v4.381zm0 4.868h4.382v-4.381h-4.382v4.381zm0 4.869h4.382v-4.382h-4.382v4.382zm0 4.868h4.382v-4.382h-4.382v4.382zm0 4.868h4.382v-4.381h-4.382v4.381zm0 4.869h4.382v-4.381h-4.382v4.381zm0 4.868h4.382v-4.382h-4.382v4.382zm0 4.138h4.382v-3.651h-4.382v3.651zm0 5.599h4.382v-3.651h-4.382v3.651zm0 4.868h4.382v-4.381h-4.382v4.381zm0 4.869h4.382v-4.382h-4.382v4.382zm0 4.868h4.382v-4.381h-4.382v4.381zM64.507 5.809h4.382V1.428h-4.382v4.381zm0 4.869h4.382V6.296h-4.382v4.382zm0 4.868h4.382v-4.381h-4.382v4.381zm0 4.138h4.382v-3.651h-4.382v3.651zm0 5.599h4.382v-3.651h-4.382v3.651zm0 4.868h4.382v-4.382h-4.382v4.382zm0 4.869h4.382v-4.381h-4.382v4.381zm0 4.868h4.382v-4.381h-4.382v4.381zm0 4.869h4.382v-4.382h-4.382v4.382zm0 4.868h4.382v-4.382h-4.382v4.382zm0 4.868h4.382v-4.381h-4.382v4.381zm0 4.869h4.382v-4.381h-4.382v4.381zm0 4.868h4.382v-4.382h-4.382v4.382zm0 4.138h4.382v-3.651h-4.382v3.651zm0 5.599h4.382v-3.651h-4.382v3.651zm0 4.868h4.382v-4.381h-4.382v4.381zm0 4.869h4.382v-4.382h-4.382v4.382zm0 4.868h4.382v-4.381h-4.382v4.381zM59.639 5.809h4.381V1.428h-4.381v4.381zm0 4.869h4.381V6.296h-4.381v4.382zm0 4.868h4.381v-4.381h-4.381v4.381zm0 4.138h4.381v-3.651h-4.381v3.651zm0 5.599h4.381v-3.651h-4.381v3.651zm0 4.868h4.381v-4.382h-4.381v4.382zm0 4.869h4.381v-4.381h-4.381v4.381zm0 4.868h4.381v-4.381h-4.381v4.381zm0 4.869h4.381v-4.382h-4.381v4.382zm0 4.868h4.381v-4.382h-4.381v4.382zm0 4.868h4.381v-4.381h-4.381v4.381zm0 4.869h4.381v-4.381h-4.381v4.381zm0 4.868h4.381v-4.382h-4.381v4.382zm0 4.138h4.381v-3.651h-4.381v3.651zm0 5.599h4.381v-3.651h-4.381v3.651zm0 4.868h4.381v-4.381h-4.381v4.381zm0 4.869h4.381v-4.382h-4.381v4.382zm0 4.868h4.381v-4.381h-4.381v4.381zm-4.87-82.763h4.382V1.428h-4.382v4.381zm0 4.869h4.382V6.296h-4.382v4.382zm0 4.868h4.382v-4.381h-4.382v4.381zm0 4.138h4.382v-3.651h-4.382v3.651zm0 5.599h4.382v-3.651h-4.382v3.651zm0 4.868h4.382v-4.382h-4.382v4.382zm0 4.869h4.382v-4.381h-4.382v4.381zm0 4.868h4.382v-4.381h-4.382v4.381zm0 4.869h4.382v-4.382h-4.382v4.382zm0 4.868h4.382v-4.382h-4.382v4.382zm0 4.868h4.382v-4.381h-4.382v4.381zm0 4.869h4.382v-4.381h-4.382v4.381zm0 4.868h4.382v-4.382h-4.382v4.382zm0 4.138h4.382v-3.651h-4.382v3.651zm0 5.599h4.382v-3.651h-4.382v3.651zm0 4.868h4.382v-4.381h-4.382v4.381zm0 4.869h4.382v-4.382h-4.382v4.382zm0 4.868h4.382v-4.381h-4.382v4.381zM50.632 5.809h3.651V1.428h-3.651v4.381zm0 4.869h3.651V6.296h-3.651v4.382zm0 4.868h3.651v-4.381h-3.651v4.381zm0 4.138h3.651v-3.651h-3.651v3.651zm0 5.599h3.651v-3.651h-3.651v3.651zm0 4.868h3.651v-4.382h-3.651v4.382zm0 4.869h3.651v-4.381h-3.651v4.381zm0 4.868h3.651v-4.381h-3.651v4.381zm0 4.869h3.651v-4.382h-3.651v4.382zm0 4.868h3.651v-4.382h-3.651v4.382zm0 4.868h3.651v-4.381h-3.651v4.381zm0 4.869h3.651v-4.381h-3.651v4.381zm0 4.868h3.651v-4.382h-3.651v4.382zm0 4.138h3.651v-3.651h-3.651v3.651zm0 5.599h3.651v-3.651h-3.651v3.651zm0 4.868h3.651v-4.381h-3.651v4.381zm0 4.869h3.651v-4.382h-3.651v4.382zm0 4.868h3.651v-4.381h-3.651v4.381zM45.034 5.809h3.651V1.428h-3.651v4.381zm0 4.869h3.651V6.296h-3.651v4.382zm0 4.868h3.651v-4.381h-3.651v4.381zm0 4.138h3.651v-3.651h-3.651v3.651zm0 5.599h3.651v-3.651h-3.651v3.651zm0 4.868h3.651v-4.382h-3.651v4.382zm0 4.869h3.651v-4.381h-3.651v4.381zm0 4.868h3.651v-4.381h-3.651v4.381zm0 4.869h3.651v-4.382h-3.651v4.382zm0 4.868h3.651v-4.382h-3.651v4.382zm0 4.868h3.651v-4.381h-3.651v4.381zm0 4.869h3.651v-4.381h-3.651v4.381zm0 4.868h3.651v-4.382h-3.651v4.382zm0 4.138h3.651v-3.651h-3.651v3.651zm0 5.599h3.651v-3.651h-3.651v3.651zm0 4.868h3.651v-4.381h-3.651v4.381zm0 4.869h3.651v-4.382h-3.651v4.382zm0 4.868h3.651v-4.381h-3.651v4.381zm-4.87-82.763h4.382V1.428h-4.382v4.381zm0 4.869h4.382V6.296h-4.382v4.382zm0 4.868h4.382v-4.381h-4.382v4.381zm0 4.138h4.382v-3.651h-4.382v3.651zm0 5.599h4.382v-3.651h-4.382v3.651zm0 4.868h4.382v-4.382h-4.382v4.382zm0 4.869h4.382v-4.381h-4.382v4.381zm0 4.868h4.382v-4.381h-4.382v4.381zm0 4.869h4.382v-4.382h-4.382v4.382zm0 4.868h4.382v-4.382h-4.382v4.382zm0 4.868h4.382v-4.381h-4.382v4.381zm0 4.869h4.382v-4.381h-4.382v4.381zm0 4.868h4.382v-4.382h-4.382v4.382zm0 4.138h4.382v-3.651h-4.382v3.651zm0 5.599h4.382v-3.651h-4.382v3.651zm0 4.868h4.382v-4.381h-4.382v4.381zm0 4.869h4.382v-4.382h-4.382v4.382zm0 4.868h4.382v-4.381h-4.382v4.381zM35.296 5.809h4.382V1.428h-4.382v4.381zm0 4.869h4.382V6.296h-4.382v4.382zm0 4.868h4.382v-4.381h-4.382v4.381zm0 4.138h4.382v-3.651h-4.382v3.651zm0 5.599h4.382v-3.651h-4.382v3.651zm0 4.868h4.382v-4.382h-4.382v4.382zm0 4.869h4.382v-4.381h-4.382v4.381zm0 4.868h4.382v-4.381h-4.382v4.381zm0 4.869h4.382v-4.382h-4.382v4.382zm0 4.868h4.382v-4.382h-4.382v4.382zm0 4.868h4.382v-4.381h-4.382v4.381zm0 4.869h4.382v-4.381h-4.382v4.381zm0 4.868h4.382v-4.382h-4.382v4.382zm0 4.138h4.382v-3.651h-4.382v3.651zm0 5.599h4.382v-3.651h-4.382v3.651zm0 4.868h4.382v-4.381h-4.382v4.381zm0 4.869h4.382v-4.382h-4.382v4.382zm0 4.868h4.382v-4.381h-4.382v4.381zM30.428 5.809h4.382V1.428h-4.382v4.381zm0 4.869h4.382V6.296h-4.382v4.382zm0 4.868h4.382v-4.381h-4.382v4.381zm0 4.138h4.382v-3.651h-4.382v3.651zm0 5.599h4.382v-3.651h-4.382v3.651zm0 4.868h4.382v-4.382h-4.382v4.382zm0 4.869h4.382v-4.381h-4.382v4.381zm0 4.868h4.382v-4.381h-4.382v4.381zm0 4.869h4.382v-4.382h-4.382v4.382zm0 4.868h4.382v-4.382h-4.382v4.382zm0 4.868h4.382v-4.381h-4.382v4.381zm0 4.869h4.382v-4.381h-4.382v4.381zm0 4.868h4.382v-4.382h-4.382v4.382zm0 4.138h4.382v-3.651h-4.382v3.651zm0 5.599h4.382v-3.651h-4.382v3.651zm0 4.868h4.382v-4.381h-4.382v4.381zm0 4.869h4.382v-4.382h-4.382v4.382zm0 4.868h4.382v-4.381h-4.382v4.381zM25.559 5.809h4.381V1.428h-4.381v4.381zm0 4.869h4.381V6.296h-4.381v4.382zm0 4.868h4.381v-4.381h-4.381v4.381zm0 4.138h4.381v-3.651h-4.381v3.651zm0 5.599h4.381v-3.651h-4.381v3.651zm0 4.868h4.381v-4.382h-4.381v4.382zm0 4.869h4.381v-4.381h-4.381v4.381zm0 4.868h4.381v-4.381h-4.381v4.381zm0 4.869h4.381v-4.382h-4.381v4.382zm0 4.868h4.381v-4.382h-4.381v4.382zm0 4.868h4.381v-4.381h-4.381v4.381zm0 4.869h4.381v-4.381h-4.381v4.381zm0 4.868h4.381v-4.382h-4.381v4.382zm0 4.138h4.381v-3.651h-4.381v3.651zm0 5.599h4.381v-3.651h-4.381v3.651zm0 4.868h4.381v-4.381h-4.381v4.381zm0 4.869h4.381v-4.382h-4.381v4.382zm0 4.868h4.381v-4.381h-4.381v4.381zM20.69 5.809h4.382V1.428H20.69v4.381zm0 4.869h4.382V6.296H20.69v4.382zm0 4.868h4.382v-4.381H20.69v4.381zm0 4.138h4.382v-3.651H20.69v3.651zm0 5.599h4.382v-3.651H20.69v3.651zm0 4.868h4.382v-4.382H20.69v4.382zm0 4.869h4.382v-4.381H20.69v4.381zm0 4.868h4.382v-4.381H20.69v4.381zm0 4.869h4.382v-4.382H20.69v4.382zm0 4.868h4.382v-4.382H20.69v4.382zm0 4.868h4.382v-4.381H20.69v4.381zm0 4.869h4.382v-4.381H20.69v4.381zm0 4.868h4.382v-4.382H20.69v4.382zm0 4.138h4.382v-3.651H20.69v3.651zm0 5.599h4.382v-3.651H20.69v3.651zm0 4.868h4.382v-4.381H20.69v4.381zm0 4.869h4.382v-4.382H20.69v4.382zm0 4.868h4.382v-4.381H20.69v4.381zM15.822 5.809h4.382V1.428h-4.382v4.381zm0 4.869h4.382V6.296h-4.382v4.382zm0 4.868h4.382v-4.381h-4.382v4.381zm0 4.138h4.382v-3.651h-4.382v3.651zm0 5.599h4.382v-3.651h-4.382v3.651zm0 4.868h4.382v-4.382h-4.382v4.382zm0 4.869h4.382v-4.381h-4.382v4.381zm0 4.868h4.382v-4.381h-4.382v4.381zm0 4.869h4.382v-4.382h-4.382v4.382zm0 4.868h4.382v-4.382h-4.382v4.382zm0 4.868h4.382v-4.381h-4.382v4.381zm0 4.869h4.382v-4.381h-4.382v4.381zm0 4.868h4.382v-4.382h-4.382v4.382zm0 4.138h4.382v-3.651h-4.382v3.651zm0 5.599h4.382v-3.651h-4.382v3.651zm0 4.868h4.382v-4.381h-4.382v4.381zm0 4.869h4.382v-4.382h-4.382v4.382zm0 4.868h4.382v-4.381h-4.382v4.381zM10.954 5.809h4.382V1.428h-4.382v4.381zm0 4.869h4.382V6.296h-4.382v4.382zm0 4.868h4.382v-4.381h-4.382v4.381zm0 4.138h4.382v-3.651h-4.382v3.651zm0 5.599h4.382v-3.651h-4.382v3.651zm0 4.868h4.382v-4.382h-4.382v4.382zm0 4.869h4.382v-4.381h-4.382v4.381zm0 4.868h4.382v-4.381h-4.382v4.381zm0 4.869h4.382v-4.382h-4.382v4.382zm0 4.868h4.382v-4.382h-4.382v4.382zm0 4.868h4.382v-4.381h-4.382v4.381zm0 4.869h4.382v-4.381h-4.382v4.381zm0 4.868h4.382v-4.382h-4.382v4.382zm0 4.138h4.382v-3.651h-4.382v3.651zm0 5.599h4.382v-3.651h-4.382v3.651zm0 4.868h4.382v-4.381h-4.382v4.381zm0 4.869h4.382v-4.382h-4.382v4.382zm0 4.868h4.382v-4.381h-4.382v4.381zM6.086 5.809h4.381V1.428H6.086v4.381zm0 4.869h4.381V6.296H6.086v4.382zm0 4.868h4.381v-4.381H6.086v4.381zm0 4.138h4.381v-3.651H6.086v3.651zm0 5.599h4.381v-3.651H6.086v3.651zm0 4.868h4.381v-4.382H6.086v4.382zm0 4.869h4.381v-4.381H6.086v4.381zm0 4.868h4.381v-4.381H6.086v4.381zm0 4.869h4.381v-4.382H6.086v4.382zm0 4.868h4.381v-4.382H6.086v4.382zm0 4.868h4.381v-4.381H6.086v4.381zm0 4.869h4.381v-4.381H6.086v4.381zm0 4.868h4.381v-4.382H6.086v4.382zm0 4.138h4.381v-3.651H6.086v3.651zm0 5.599h4.381v-3.651H6.086v3.651zm0 4.868h4.381v-4.381H6.086v4.381zm0 4.869h4.381v-4.382H6.086v4.382zm0 4.868h4.381v-4.381H6.086v4.381zM1.948 5.809h3.651V1.428H1.948v4.381zm0 4.869h3.651V6.296H1.948v4.382zm0 4.868h3.651v-4.381H1.948v4.381zm0 4.138h3.651v-3.651H1.948v3.651zm0 5.599h3.651v-3.651H1.948v3.651zm0 4.868h3.651v-4.382H1.948v4.382zm0 4.869h3.651v-4.381H1.948v4.381zm0 4.868h3.651v-4.381H1.948v4.381zm0 4.869h3.651v-4.382H1.948v4.382zm0 4.868h3.651v-4.382H1.948v4.382zm0 4.868h3.651v-4.381H1.948v4.381zm0 4.869h3.651v-4.381H1.948v4.381zm0 4.868h3.651v-4.382H1.948v4.382zm0 4.138h3.651v-3.651H1.948v3.651zm0 5.599h3.651v-3.651H1.948v3.651zm0 4.868h3.651v-4.381H1.948v4.381zm0 4.869h3.651v-4.382H1.948v4.382zm0 4.868h3.651v-4.381H1.948v4.381zM146.053.005v.936h-3.652V0h-.487v.941h-4.381V0h-.487v.941h-4.382V0h-.486v.941h-4.382V0h-.486v.941h-4.382V0h-.488v.941h-4.38V0h-.488v.941h-4.382V0h-.486v.941h-4.382V0h-.486v.941h-4.382V0h-.487v.941h-3.652V0h-1.947v.941h-3.651V0h-.487v.941h-4.381V0h-.488v.941H83.98V0h-.487v.941h-4.382V0h-.486v.941h-4.382V0h-.486v.941h-4.382V0h-.486v.941h-4.382V0h-.487v.941h-4.381V0h-.488v.941H54.77V0h-.487v.941h-3.651V0h-1.947v.941h-3.652V0h-.487v.941h-4.382V0h-.486v.941h-4.382V0h-.486v.941h-4.382V0h-.488v.941h-4.38V0h-.488v.941H20.69V0h-.486v.941h-4.382V0h-.486v.941h-4.382V0h-.487v.941H6.086V0h-.487v.941H1.947V.005A2.003 2.003 0 0 0 0 2V88c0 1.082.872 1.966 1.947 1.995v-.936h3.652V90h.487v-.941h4.381V90h.487v-.941h4.382V90h.486v-.941h4.382V90h.486v-.941h4.382V90h.488v-.941h4.38V90h.488v-.941h4.382V90h.486v-.941h4.382V90h.486v-.941h4.382V90h.487v-.941h3.652V90h1.947v-.941h3.651V90h.487v-.941h4.381V90h.488v-.941h4.381V90h.487v-.941h4.382V90h.486v-.941h4.382V90h.486v-.941h4.382V90h.486v-.941h4.382V90h.487v-.941h4.381V90h.488v-.941h4.381V90h.487v-.941h3.651V90h1.947v-.941h3.652V90h.487v-.941h4.382V90h.486v-.941h4.382V90h.486v-.941h4.382V90h.488v-.941h4.38V90h.488v-.941h4.382V90h.486v-.941h4.382V90h.486v-.941h4.382V90h.487v-.941h4.381V90h.487v-.941h3.652v.936A2.003 2.003 0 0 0 148 88V2a2.003 2.003 0 0 0-1.947-1.995z"/>
</svg>
