<svg width="13" height="12" viewBox="0 0 13 12" xmlns="http://www.w3.org/2000/svg"><title>B921C912-6FF5-4DAF-9EEA-9A6E1C6686B1</title><g fill="#ADADAD" fill-rule="evenodd"><path d="M5.368.93L2.914 2.77H.672A.674.674 0 0 0 0 3.44v4.685c0 .37.303.672.672.672h2.242l2.454 1.838a.67.67 0 0 0 1.076-.538v-8.63A.67.67 0 0 0 5.368.932zM8.663 2.03a.791.791 0 0 0-1.11 0 .791.791 0 0 0 0 1.109 3.734 3.734 0 0 1 0 5.278.791.791 0 0 0 0 1.11.77.77 0 0 0 1.099-.012c2.084-2.05 2.084-5.413.01-7.486z"/><path d="M9.537.27a.792.792 0 0 0 0 1.11 6.18 6.18 0 0 1 1.827 4.403 6.18 6.18 0 0 1-1.827 4.405.792.792 0 0 0 .55 1.345.78.78 0 0 0 .548-.225 7.757 7.757 0 0 0 2.286-5.513A7.73 7.73 0 0 0 10.635.28.768.768 0 0 0 9.537.27z"/></g></svg>