<?xml version="1.0" encoding="UTF-8"?>
<svg width="14px" height="14px" viewBox="0 0 14 14" version="1.1" xmlns="http://www.w3.org/2000/svg" xmlns:xlink="http://www.w3.org/1999/xlink">
    <!-- Generator: sketchtool 53.2 (72643) - https://sketchapp.com -->
    <title>94E84813-A096-40E5-A9F6-624D7996FFDA</title>
    <desc>Created with sketchtool.</desc>
    <g id="Screens-2019" stroke="none" stroke-width="1" fill="none" fill-rule="evenodd" fill-opacity="0.4">
        <g id="Pinboard---Untitled---Hover" transform="translate(-142.000000, -959.000000)" fill="#231F20" fill-rule="nonzero">
            <path d="M149,959 C145.133065,959 142,962.133065 142,966 C142,969.866935 145.133065,973 149,973 C152.866935,973 156,969.866935 156,966 C156,962.133065 152.866935,959 149,959 Z M152.432258,967.8375 C152.564919,967.970161 152.564919,968.184677 152.432258,968.317339 L151.314516,969.432258 C151.181855,969.564919 150.967339,969.564919 150.834677,969.432258 L149,967.580645 L147.1625,969.432258 C147.029839,969.564919 146.815323,969.564919 146.682661,969.432258 L145.567742,968.314516 C145.435081,968.181855 145.435081,967.967339 145.567742,967.834677 L147.419355,966 L145.567742,964.1625 C145.435081,964.029839 145.435081,963.815323 145.567742,963.682661 L146.685484,962.564919 C146.818145,962.432258 147.032661,962.432258 147.165323,962.564919 L149,964.419355 L150.8375,962.567742 C150.970161,962.435081 151.184677,962.435081 151.317339,962.567742 L152.435081,963.685484 C152.567742,963.818145 152.567742,964.032661 152.435081,964.165323 L150.580645,966 L152.432258,967.8375 Z" id="ic-clear"></path>
        </g>
    </g>
</svg>