<svg xmlns="http://www.w3.org/2000/svg" width="14" height="14" viewBox="0 0 14 14">
    <path fill="#231F20" fill-rule="nonzero" d="M7 0C3.133 0 0 3.133 0 7s3.133 7 7 7 7-3.133 7-7-3.133-7-7-7zm3.432 8.837a.339.339 0 0 1 0 .48l-1.117 1.115a.339.339 0 0 1-.48 0L7 8.581l-1.838 1.851a.339.339 0 0 1-.48 0L3.569 9.315a.339.339 0 0 1 0-.48L5.419 7 3.568 5.163a.339.339 0 0 1 0-.48l1.117-1.118a.339.339 0 0 1 .48 0L7 5.419l1.838-1.851a.339.339 0 0 1 .48 0l1.117 1.117a.339.339 0 0 1 0 .48L8.581 7l1.851 1.837z"/>
</svg>
