<svg width="16" height="16" viewBox="0 0 16 16" fill="none" xmlns="http://www.w3.org/2000/svg">
<path fill-rule="evenodd" clip-rule="evenodd" d="M0 8C0 3.58065 3.58065 0 8 0C12.4194 0 16 3.58065 16 8C16 12.4194 12.4194 16 8 16C3.58065 16 0 12.4194 0 8ZM11.9226 10.6484C12.0742 10.4968 12.0742 10.2516 11.9226 10.1L9.80645 8L11.9258 5.90323C12.0774 5.75161 12.0774 5.50645 11.9258 5.35484L10.6484 4.07742C10.4968 3.92581 10.2516 3.92581 10.1 4.07742L8 6.19355L5.90323 4.07419C5.75161 3.92258 5.50645 3.92258 5.35484 4.07419L4.07742 5.35161C3.92581 5.50323 3.92581 5.74839 4.07742 5.9L6.19355 8L4.07742 10.0968C3.92581 10.2484 3.92581 10.4935 4.07742 10.6452L5.35161 11.9226C5.50323 12.0742 5.74839 12.0742 5.9 11.9226L8 9.80645L10.0968 11.9226C10.2484 12.0742 10.4935 12.0742 10.6452 11.9226L11.9226 10.6484Z" fill="#236C00" fill-opacity="0.8"/>
</svg>
