<svg xmlns="http://www.w3.org/2000/svg" width="13" height="17" viewBox="0 0 13 17">
    <path fill="#ffffff" d="M7.438 4.516V0H.796C.355 0 0 .355 0 .797v15.406c0 .442.355.797.797.797h11.156c.442 0 .797-.355.797-.797V5.313H8.234c-.438 0-.796-.36-.796-.797zm2.538 7.017l-3.202 3.178c-.22.22-.577.22-.798 0l-3.201-3.178c-.337-.334-.1-.908.373-.908h2.164V7.969c0-.294.238-.532.532-.532h1.062c.294 0 .532.238.532.532v2.656h2.164c.474 0 .71.574.374.908zm2.542-8.047L9.267.232C9.117.083 8.915 0 8.703 0H8.5v4.25h4.25v-.203c0-.209-.083-.411-.232-.56z"/>
</svg>
