<svg xmlns="http://www.w3.org/2000/svg" width="14" height="14">
 <rect id="svg_19" height="9.312465" width="8.999966" y="2.339862" x="2.468767" stroke-width="1.5" fill="#236C00"/>
 <path fill="white" d="m12.862346,3.556797c-0.613442,-1.055658 -1.445537,-1.891493 -2.496504,-2.50766c-1.051154,-0.616136 -2.198636,-0.924141 -3.443322,-0.924141c-1.24456,0 -2.392386,0.308005 -3.443353,0.924141c-1.051029,0.616073 -1.883124,1.451907 -2.496566,2.50766c-0.613473,1.055816 -0.9201,2.2088 -0.9201,3.458859c0,1.250122 0.306721,2.402918 0.920007,3.458796c0.613411,1.055658 1.445506,1.891493 2.496535,2.507723c1.051092,0.616105 2.198824,0.924141 3.443353,0.924141s2.392386,-0.308037 3.443415,-0.924141c1.050967,-0.61601 1.88303,-1.452065 2.49641,-2.507723c0.613286,-1.055784 0.919881,-2.208737 0.919881,-3.458796c0.000031,-1.250185 -0.306596,-2.4032 -0.919756,-3.458859zm-1.938249,4.033073c0,0.155495 -0.056658,0.29025 -0.169817,0.403728c-0.113253,0.113573 -0.247185,0.17058 -0.401922,0.17058l-2.286673,0l0,2.29673c0,0.155495 -0.05672,0.290124 -0.169817,0.403948c-0.113034,0.113542 -0.24706,0.17036 -0.401922,0.17036l-1.143258,0c-0.1548,0 -0.288795,-0.056818 -0.401922,-0.17036c-0.113159,-0.113793 -0.169754,-0.248422 -0.169754,-0.403948l0,-2.29673l-2.286611,0c-0.1548,0 -0.288732,-0.056975 -0.401922,-0.17058c-0.113128,-0.113447 -0.169691,-0.248202 -0.169691,-0.403728l0,-1.148522c0,-0.155495 0.056595,-0.290092 0.169691,-0.403728c0.113159,-0.113667 0.247091,-0.170517 0.401922,-0.170517l2.286704,0l0,-2.296887c0,-0.155527 0.056595,-0.29003 0.169754,-0.403728c0.113128,-0.113636 0.247091,-0.170454 0.401922,-0.170454l1.143383,0c0.1548,0 0.288857,0.056849 0.401922,0.170454c0.113065,0.113667 0.169817,0.248202 0.169817,0.403728l0,2.296887l2.286454,0c0.1548,0 0.288826,0.056849 0.401922,0.170517c0.113159,0.113605 0.169817,0.248202 0.169817,0.403728l0,1.148522z"/>
</svg>
