<svg width="20" height="5" viewBox="0 0 20 5" fill="none" xmlns="http://www.w3.org/2000/svg">
<path fill-rule="evenodd" clip-rule="evenodd" d="M2.4 4.8C3.72548 4.8 4.8 3.72548 4.8 2.4C4.8 1.07452 3.72548 0 2.4 0C1.07452 0 0 1.07452 0 2.4C0 3.72548 1.07452 4.8 2.4 4.8Z" fill="#444444"/>
<path fill-rule="evenodd" clip-rule="evenodd" d="M10.0001 4.8C11.3256 4.8 12.4001 3.72548 12.4001 2.4C12.4001 1.07452 11.3256 0 10.0001 0C8.67461 0 7.6001 1.07452 7.6001 2.4C7.6001 3.72548 8.67461 4.8 10.0001 4.8Z" fill="#444444"/>
<path fill-rule="evenodd" clip-rule="evenodd" d="M17.4 4.8C18.7255 4.8 19.8 3.72548 19.8 2.4C19.8 1.07452 18.7255 0 17.4 0C16.0745 0 15 1.07452 15 2.4C15 3.72548 16.0745 4.8 17.4 4.8Z" fill="#444444"/>
</svg>
