<?xml version="1.0" encoding="UTF-8" standalone="no"?>
<svg width="16px" height="16px" viewBox="0 0 16 16" version="1.1" xmlns="http://www.w3.org/2000/svg" xmlns:xlink="http://www.w3.org/1999/xlink">
    <!-- Generator: sketchtool 46.1 (44463) - http://www.bohemiancoding.com/sketch -->
    <title>51BDABC5-FD2A-4F82-AE7A-1502CEC3D918</title>
    <desc>Created with sketchtool.</desc>
    <defs></defs>
    <g id="Style-Guide" stroke="none" stroke-width="1" fill="none" fill-rule="evenodd">
        <g transform="translate(-448.000000, -240.000000)" id="Group-8" fill="#ADADAD">
            <g transform="translate(368.000000, 144.000000)">
                <path d="M80.8830505,96 C80.3952445,96 80,96.3953045 80,96.8831105 L80,111.117009 C80,111.604696 80.3952445,112.00012 80.8830505,112.00012 L88.5461065,112.00012 L88.5461065,105.804019 L86.4610162,105.804019 L86.4610162,103.389268 L88.5461065,103.389268 L88.5461065,101.60848 C88.5461065,99.5419138 89.8082752,98.4166089 91.6518305,98.4166089 C92.534881,98.4166089 93.2938968,98.4823131 93.5151091,98.5117482 L93.5151091,100.671415 L92.2364543,100.672015 C91.2338653,100.672015 91.0396901,101.14843 91.0396901,101.847617 L91.0396901,103.389268 L93.4308805,103.389268 L93.1195048,105.804019 L91.0396901,105.804019 L91.0396901,112.00012 L95.1169495,112.00012 C95.6045756,112.00012 96,111.604696 96,111.117009 L96,96.8831105 C96,96.3953045 95.6045756,96 95.1169495,96 L80.8830505,96 Z" id="Fill-1"></path>
            </g>
        </g>
    </g>
</svg>