<svg xmlns="http://www.w3.org/2000/svg" width="62" height="76" viewBox="0 0 62 76">
    <path fill="none" fill-rule="evenodd" stroke="#ADADAD" stroke-width=".5" d="M48.415 31.294a.513.513 0 0 0 0 0c-.052 0-.105.005-.158.01zm-2.96-14.72zm-.1-.239zm.162.278zm-28.399-6.384l-.509-.006v-.121h.579v-.299h.18l-.054-.23-.023-.316.48-.312h.116v1.294l-.769-.01zm.174-1.41l-.04.436h-.814v-.106l.228-.331h.626zm43.65 52.46c.02.09.079.16.125.217l.229.28-.282.301a.152.152 0 0 0-.047.087.135.135 0 0 0 .042.11c.075.08.198.108.366.079.033-.006.064-.012.085-.006.006.003.013.016.013.02l-.003 3.4h-.76v1.469h-1.392v.344h-.646v-3.433l.317-.472h-.415v-.81l.488-.687v-1.191l-.167-.167v-1.342h.167v-.376l1.8-1.206c.156.219.501.311.643.34l-.034 1.798c-.006.072-.004.145.005.217a.2.2 0 0 0-.066.064.19.19 0 0 0-.024.16l.015.05h.1l.002.289a.628.628 0 0 0-.352.058c-.135.071-.25.234-.21.407zM53.805 75l-.142-.837-1.372-2.07c.264.068.749.183.988.183h3.343v-1.819a.419.419 0 0 0 .212-.197c.117.366.327.734.629 1.097.316.38.686.708 1.102.975l.105.068.004-.126c.011-.389.023-.792-.06-1.185-.007-.04-.016-.078-.026-.117a3.003 3.003 0 0 1-.039-.184c-.066-.394.034-.811.121-1.18l.002-1.887h.788v-.343h1.392v-1.47h.618V75h-7.665zm-6.07-1.183v-.352l.319-.474v-1.33l.89-4.37h1.3v1.971l3.284 4.954.133.784h-5.499v-1.007l-.427-.176zm-.254-2.301c-.276 0-.609.05-.985.427-.426.426-.752.617-.886.617-.084 0-.23-.036-.386-.073a3.819 3.819 0 0 0-.543-.103c-.265-.022-.695.094-.884.15v-.972h.827v-1.578h-2.97v-2.692H48.8l-.886 4.348v.594h-.13v-.718h-.302zm-6.57-2.929l-.204.271h-.164v-.176h-2.44V67.3h-1.384v-1.282h.177v-.135h.542v-1.356H44.36v2.624h-2.847v1.437h-.602zm-4.874-1.966l-.163.678h-.722l.027.692h-.752l-.014-.694-4.093.136v-1.31l2.836-.108-.109-4.242 1.077-.012v.306l.163.013v1.104h1.551v-.271h.74V66.62h-.541zm.682-2.095h.578v1.214h-.543v.136h-.035v-1.35zm.584-1.613v-1.261h1.356v-4.235l1.21-.033.607 1.063 1.873 4.4-.439 1.537h-5.191v-1.471h.584zm-7.347-8.975h2.886v-1.492h.076l1.178.563.194.007h4.827l.118 3.24v.017l.555.972-9.76.264-.074-3.571zm-8.674-4.094v-2.117l9.196-.168.043 2.74h-.638v.066l-.016-.774-8.585.253zm.548-5.098h6.484V42.19l1.247-.56v-1.078h.808l.007.463.073 4.638.027 1.764-9.194.168v-2.457l.548-.382zm-1.35-21.4v-2.713l2.872 1.276.013.005 3.727.09 2.838.513.158 5.04-.037 2.203h.147l.024 1.413.01.58-5.154.177v-8.584H20.48zm-4.042-5.658v-1.356h-.236v-2.75h.442l.11 1.448 3.606-.132v-.246l1.884-1.179h1.066v1.32h1.501v2.793l-2.047.047-2.426.056v.668h-1.243v-.67h-2.657zm-2.94-2.534h1.24v-.955H12.93v-.311l.536-1.161.007-1.234.158.017.024-.395-.189-.19-.45.021-.162.118-.25-.3H9.662V13.8l-1.808-.054v1.466l-1.561.002-1.567-.297.036-.912-1.21-.45v.947l-.42-.122v-.855l-.812-.145v-.97h-.543v-.4L1 12.497V6.893h.255l.272-1.027H1v-.51h.922v-.962l-.18.018v-.447h.192v1.47l.13-.191c.132-.196.241-.302.313-.358v.272h.687v.235h.846v-.76h.922V4.02h.04v.56h.972v-.741h.258l1.571.716v.296h.457l.122.121v.063h-.634l-.406.12-.638-.408-.329-.025v.187l.936.617 1.862.313v.714l.604.014.467 1.272v.573h.284v.987l.23.689h-.297v.656h2.148v-.357l.867-1.071V7.788l2.681.493.015 2.137-.113.075h-.61v.268h.564l.019.471.135-.033-.008.126h-.55v-.398h-.882v1.299h1.464v4.248h.235v1.214h-2.1c-.479-.65-.66-2.175-.698-2.534zm4.638-6.486l.3-2.48h1.398v.339h.71l.014-1.234h.706l.203.298h.53v-.176h.933l.068.232.963-.016.205-.544.035.025.037.88h-.397v.358l.738.393v2.11h-1.477v2.797h-2.679v-1.157h-1.542v.75h-.139v-.722l-1.316-.01v.226h-.493l-.117-.09h-.237l.01-.12h.02v-.162l1.42.018v-1.58h-.3l-.311.203.03-.33h-.856l-.296.429v.292h.864l.015.198.015.067h-.144v.298h-.578v.33l-.009.095h-.275l-.015-2.078 1.967.36zm.457-5.246v-.968h-.149V1.89h1.973v3.332l-.012 1.163h-.429v-.339h-1.532V3.422h.15zm4.637-.013V3.3h1.301v-.718h.198V3.3h.544l.54.965v.277l.456.304H26.548v-.142h-.04c-.094 0-.202-.076-.255-.123v-.596h.658v1.262l1.352.887h3.817c-.218.373-.985 1.632-1.609 1.944l-.04.02v.75h-1.538l.092 2.947h-.536v-.922h-.352V9.832l-1.148-2.467-.18.18h-.38v-.277l-.284.392h-.398l-.093-.152.178-.12v-.284h-.407v-.221l.299-.244v-.552h-.299v-.095h-.263v.109h-.17v-.15h-.574l-.038-.916-.243-.166-.235.622-.759.012-.038-.13 1.076-.744-.911-1.22zm11.483-1.573h3.474v.54l1.085 3.595h.326l.023 1.35h-2.135v1.484h-2.36l-.359-1.834c-.054-.274-.108-.558-.076-.837h.022V1.836zm4.844-.623V1h1.54v.526l.597 1.627.525.868.162.076v.214h-.183v.756l.346.707.003.055h-3.17l-1.049-3.464v-.529h1.704l-.475-.623zm3.68 7.117l.028.018.026-.002c.012.013.02.049.021.09a.29.29 0 0 0-.181.173c-.036.09-.033.188-.031.266l.016.602c.001.04.003.096.036.145.027.04.067.062.096.078l.478.264h-.464v.177h-3.45l-.072-4.17h2.814l.1 1.937.583.422zm.615 2.579c.023.056.056.104.088.15l.016.024c.08.116.145.242.196.372l.028.075c.038.102.076.208.147.3.078.101.185.17.279.224.37.211.804.325 1.231.325h.048l.077.552-.497.216a.424.424 0 0 0-.12.072.915.915 0 0 0-.039-.351l-.019-.058-.808.135-.013.041a.606.606 0 0 0-.022.27v.002a.577.577 0 0 0 .102.258c-.021.265-.041.56.02.846h-3.032l-.452-1.248h-1.22l-.048-2.832h3.59v-.176h.342l.063.59c.007.066.014.141.043.213zm.74 2.368a.487.487 0 0 1-.003-.207l.599-.1a.78.78 0 0 1 .003.342l-.199.025-.4-.06zm.186 1.645c.1.236.16.495.22.745.033.139.068.28.109.42l-.039.003c-.16-.002-.281-.166-.38-.327l-.293-.477.165.535c.057.185.093.381.128.571.055.3.112.61.252.891.062.124.17.244.303.244a.226.226 0 0 0 .056-.007c.128-.033.186-.165.217-.235l.025-.062.355.86.044.101c.038.084.073.164.094.252v.266h-6.076l-.093-5.446h1.118l.452 1.247H44.6l.005.015c.03.093.071.181.11.267.022.045.043.09.062.137zm.371 1.304c.042.124.088.237.141.34l-.017.009.185.447c-.015.07-.044.142-.072.205-.03.068-.066.141-.122.156-.07.018-.15-.069-.197-.163-.13-.263-.184-.55-.24-.854-.015-.085-.031-.172-.05-.258a.432.432 0 0 0 .372.118zm1.097 3.542a3.47 3.47 0 0 0 .55 2.338c.095.141.217.295.397.359a.444.444 0 0 0 .36-.034.349.349 0 0 1-.06.099.291.291 0 0 1-.264.109l-.102-.018.02.1c.008.042-.027.075-.102.138a1.14 1.14 0 0 0-.075.066v-.067l-4.636.09a.647.647 0 0 0-.008-.196c-.058-.264-.246-.476-.417-.654-.106-.11-.233-.219-.393-.203a.54.54 0 0 0-.097.022c-.034.01-.063.02-.09.017-.048-.005-.096-.05-.142-.134a3.194 3.194 0 0 1-.165-.377c-.127-.327-.258-.665-.596-.783-.055-.02-.112-.03-.166-.042a.612.612 0 0 1-.22-.07c-.108-.072-.153-.208-.2-.353-.052-.155-.105-.316-.244-.418-.08-.059-.175-.085-.267-.11-.103-.029-.2-.056-.256-.125a.479.479 0 0 1-.071-.17c-.017-.06-.035-.122-.068-.179a.731.731 0 0 0-.201-.202.796.796 0 0 1-.141-.128H46.034v.865l.212.06zm.797 4.373c.053.283.113.532.299.71a.685.685 0 0 0 .448.188c.112.232.22.464.328.695.116.248.232.496.352.744l.026.054.057-.016c.26-.075.494-.247.643-.471l.01-.015c.022-.033.043-.065.068-.079.027-.014.069-.013.106-.012l.767.021-.023.383c-.001.018-.003.049-.012.059-.01.012-.049.017-.065.018a2.963 2.963 0 0 1-.67-.004l-.05-.006-.136.294 1.485-.035v.113l-1.568.015.016.486h-.148v-.322h-1.138v.142h.761v.13h-1.73l-.255.255-1.516.114a3.909 3.909 0 0 1-.898-2.033l-.01-.082-.08.023a.928.928 0 0 1-.985-.347l-.026-.04a.555.555 0 0 0-.15-.166.548.548 0 0 0-.232-.07.416.416 0 0 1-.179-.053.376.376 0 0 1-.107-.164 2.66 2.66 0 0 1-.186-1.35l.013-.106a.637.637 0 0 0 .05-.125L46.91 23a.269.269 0 0 0-.024.05.384.384 0 0 0-.009.169c.015.128.039.255.062.378l.104.544zm1.98 4.032l-.416.01.017.083c.021.107-.094.21-.218.266a2.757 2.757 0 0 1-.083.035c-.122.049-.26.104-.34.227-.13.196-.046.428.028.632.014.039.028.077.04.115.071.217.08.453.09.68l.042 1.072-.204-.026-.093.177h-2.279l.006-.275-.028-.022c-.11-.086-.134-.247-.135-.367 0-.052.002-.105.005-.158.005-.104.01-.212-.008-.32a1.413 1.413 0 0 0-.126-.35l-.059-.133c-.175-.428-.153-.886-.13-1.37.01-.233.02-.472.008-.709l1.537-.115.25-.251h1.814v-.271h.093v.321h.295v.022a.374.374 0 0 0-.071.222l-.035.505zm-.285 3.322c0 .016 0 .032-.002.048a.367.367 0 0 0 .002.098c.02.107.126.187.243.174.226-.058.457-.106.688-.144.006.1.02.2.042.3h-.268l-.008.061a1.878 1.878 0 0 0 0 .52l.01.07.247-.03c.01.093.013.187.01.28l-.254.015.004.07c.01.163.006.327-.01.49l-.007.088.088-.012c.005 0 .009 0 .014.005.022.018.042.078.045.138l.027.523a1.324 1.324 0 0 1-.377.052h-.075l.003.074c.005.136.008.266.011.394.006.224.011.435.026.67l.002.029.021.019c.1.09.108.232.098.39l-1.263-.08h-1.737v-2.25h-.754l.04-1.901h2.367l.088-.166.602.08.016-.122a.175.175 0 0 1 .06.117zm.802 5.604l.025.08c.15.474.337.938.553 1.387H49.07l-.182.227v.536l-.163.144v.534l-2.407.035v-4.163h1.733l1.255.08c-.004.047-.008.094-.01.14-.011.247.051.482.112.71.024.091.054.205.132.29zm1.376 2.478c-.02.33.023.929.316 1.168.041.033.086.063.13.092.063.041.121.08.168.13.103.108.143.26.184.42h-2.036l-.026-1.394-.785.012v-.468l.163-.145v-.55l.108-.134h1.049l.066.135c.152.296.35.61.663.734zm1.438 2.806l.018.013c.052.037.101.072.121.118a.325.325 0 0 1 .012.135l-.001.029a1.16 1.16 0 0 0 .246.74c.202.255.5.404.73.496-.03.09-.05.182-.062.274h-3.69l-.048-2.66h2.072l.01.035c.102.328.312.62.592.82zm1.197 2.87c.045.036.1.038.134.04l.442.017c-.019.12-.024.241-.014.362a.553.553 0 0 0-.544.304.62.62 0 0 0 .135.697c.037.035.076.063.112.088.099.07.104.084.081.14l-.094.413.026.11h-4.041l-.057-3.094h3.675c-.012.271.034.543.075.78.007.038.018.102.07.143zm.426 2.805l.836.427-.097.063-.106.068-.053-.055-.051.122-.34.22.02.597.489.147.051-.335-.16-.406.038-.09.63.66v.257l.196.167H49.647v1.327l-1.214-1.23v-2.431h5.429l.115.492zm.603 1.27l-.02.136-.235-.07-.015-.415.106-.07.164.42zm1.373 1.017l-.036.397.36.315.175-.135.04.14-.232.349 1.603 1.452.698-.02.065-.294-.16-.018.02-.085h.184l.523.619-.654.42.025.067h-.413l-.578.509-4.882.053-1.014-.959-.007-.006v-.013h-.014l-.335-.317v-.258l.119-.426h.168l.133-.787.052-1.306h3.804l.356.303zm-6.83 16.06l1.062-6.314 2.424-.066.102.216v2.422l-.446.23-.014.425-.99 1.284-.995 2.548h-1.294l.152-.744zm-4.622-1.95v-1.488h1.248v-5.744l1.087 1.433h1.22l1.992 1.398-1.063 6.326-.157.77H44.5v-2.695zm-3.344-6.012v-.402h2.606v.127l-.338.424h.526l.162.154h1.494v4.08H44.36v1.558h-2.303l.442-1.547-1.855-4.358.513-.036zm-6.798-5.569l-.159-5.383 4.712-.087.2 5.47h-4.753zm-1.517-17.718v-.416h1.502l.109-.406h1.263v-.407h1.014l.962-.284.095 4.263-7.27 3.003-.08-5.048 2.405-.705zm-2.613-7.53l2.678-.061.108 3.626H31.35v-.423l-.99.308-.024-1.458h-.142l.034-1.993zm2.642-5.097h2.803v.582h-.705v2.256h.669v.723h.813v.248l.712.292.108.695-7.043.159-.156-4.955h2.799zm6.8-12.316l.05 2.901h-2.827a.695.695 0 0 0-.02-.129c-.026-.09-.07-.17-.115-.245-.143-.242-.308-.476-.467-.703-.31-.439-.629-.893-.788-1.406-.055-.176-.091-.362-.127-.544l-.223-1.14h2.474V7.462h1.996l.047 2.75zm-1.155 8.489a.551.551 0 0 0-.051-.097c-.054-.078-.135-.128-.206-.173l-.016-.01c-.603-.383-1.058-.957-1.387-1.413-.217-.303-.311-.577-.278-.814.022-.154.011-.311 0-.463a1.808 1.808 0 0 1 .01-.486c.018-.088.058-.17.101-.257.027-.056.055-.111.077-.169.08-.208.088-.429.097-.642l.033-.85.001-.072h2.826l.094 5.446h-1.3zm-6.95.169l-.526-1.288 1.124-.026v-1.392l4.283-.087a1.165 1.165 0 0 1-.009.097c-.038.275.063.583.303.916.238.331.543.721.922 1.062v.585l-6.096.133zm-.262-8.06v.271h.67v-.732h.411l1.193.732h.636l.312-.366h.233l-.021-.088.027.082.646.084c.175.483.473.91.765 1.325.158.224.321.456.461.693.04.067.08.137.1.21a.576.576 0 0 1 .015.092h-5.02l-1.131-.982v-.337H29.13l-.043-1.322h2.027v.338h.19zm-1.958 2.498l.338-.169-.47-.32-.076-.884h1.321v.26l1.22 1.06h5.076v.066l-.034.85c-.008.202-.016.411-.088.598-.02.053-.046.105-.071.156a1.222 1.222 0 0 0-.113.292c-.036.172-.023.35-.011.523.004.067.008.131.01.195l-4.425.09v1.392l-1.09.025-1.02.024-.01-.34h-.143v-.22h.145V14.65l-.559-1.34zm.722 9.079l-.15-4.78.97-.022.566 1.383.605 1.479v1.092l.361.136v.509l.25.203h-2.602zm10.89-.143l-2.375.143H32.895l-.333-.27v-.54l-.362-.136v-1.008l-.576-1.423 6.18-.135v-.602c.115.095.235.186.364.268l.016.01c.065.041.127.08.165.135.02.027.034.061.05.097a.765.765 0 0 0 .051.106c.051.082.125.138.196.193.066.05.129.099.166.162.024.042.038.092.054.145.021.075.043.153.097.22.085.106.208.14.328.173.083.023.162.045.222.089.102.074.145.207.192.348.053.161.108.328.258.426.084.055.178.073.27.091.051.01.1.02.146.036.276.097.39.39.51.701.053.134.106.272.174.395.04.072.084.123.131.157l-.236.219zm-7.91 5.317l4.235-.096v.097l-.195.585-.004.7.18.09V31.1h-1.952l-.127-.181h-2.037l-.1-3.358zm13.129 8.246v4.236l-.663.01.132-.197-.322-.16V38.03l.145-.162v-1.65h-.38v-.635h-.538l-.11-.522c.05-.148.434-1.22 1.114-1.434h.622v2.18zm2.115 11.616v1.085h-1.368l.073-.57h-.679V44.33h3.272l.056 3.094h-1.354zm-14.095-.075l-.059-3.367 4.905-.103-.13 3.384-4.716.086zm-.275-7.693l.072 4.188-.076.001-2.058 1.14v.324h-1.03v.272h-.24l-.071-4.52 3.403-1.405zm3.869-1.599l.034 1.549.177.625.256.054v3.47l-4.122.086-.074-4.238h-.014l3.743-1.546zm4.426.61v1.434l-3.881.056-.221-.047-.148-.517L37.93 38l1.064-.439h1.768l.454-.286c.149.56.86 1.26 1 1.394zm-3.11 7.237l.083-2.17-.79.017v-3.453l3.889-.056 3.019-.044-.035 2.418.07 3.147-6.237.14zm7.07-1.645v1.485l-.692.016-.07-3.145.035-2.42.727-.01v4.074zm-.85-7.9v1.456l-.145.162v1.807l.257.128-.097.144-2.983.043v-1.493l-.023-.02c-.01-.01-1.007-.944-1.007-1.503v-.688c.053-.097.372-.648.822-.819.454-.172 1.844-.39 2.161-.438l.125.587h.51v.635h.38zm-.094-2.73c-.55.364-.853 1.173-.919 1.365-.273.041-1.727.266-2.213.45-.544.206-.891.873-.906.901l-.008.015v.723c0 .013.003.026.004.04l-.469.296h-1.741l-1.053.43-.104-4.654h.158l.19.135h1.026l.47-.135h5.18v.433h.385zM30.618 47.413l-.027-1.692h.38v-.271h1.03v-.382l1.955-1.083h.04l.06 3.365-3.438.063zm8.636 5.46l-.202-5.542.05-1.286 3.468-.079.108 6.907h-3.424zm3.565 0l-.107-6.91 2.706-.06.759-.018v2.785h-.19v2.061h-.38v.38h-.19v1.762h-.623v.407h-.59v-.407h-1.385zm2.705 2.874l-.043-.343-.193.29h-.38v-1.28l5.946-.1v1.992l.316.682-.723.007v.676l-.282.135-.108 1.831-.275.057-1.682-1.18h-1.194l-1.157-1.527v-1.24h-.225zm4.622 4.203l-.205-.144.251-.052.11-1.856.287-.137v-.626l.647-.006 1.212 2.556.062.2-2.364.065zm2.448-.287l-1.202-2.536 4.237-.045 2.822 2.666-2.792.052v-.273l-3.065.136zm2.887-2.72l-4.156.043-.33-.696v-1.979l.294-.005v-1.03h.311l1.015.96 2.866 2.706zm-4.03-3.808h-.303v1.032l-6.24.106v-.922h.027v-.336h.624v-1.763h.19v-.38h.38v-2.06h.19v-.732h.517l-.072.57h1.528v1.404l1.497 1.517v-1.53h1.862l-.05 1.291-.112.66h-.157l-.15.54-.002.347.27.256zm-1.938-12.999l.074 4.051h-3.269v-4.005l3.195-.046zm-4.517-12.436c.017.244.005.497-.006.741-.023.479-.046.974.141 1.43.02.047.04.093.062.14.05.106.096.207.115.314.016.093.01.188.005.288a2.65 2.65 0 0 0-.005.168c.001.141.031.33.162.453l-.047 2.252h-.433v-.434h-5.332l-.47.136h-.97l-.19-.136h-.207l-.017-.766-.398-.56V28.85l-.18-.09v-.578l.195-.585.002-.134 6.06-.088v.125h.738v-.126h.525a3.9 3.9 0 0 0 .25.327zm-2.81-4.697c-.033.153-.122.265-.239.302l-.008.002.04.136.01-.003.104-.03c-.038.447.033.9.207 1.314.035.084.078.17.156.225.074.053.163.065.24.077.066.01.129.018.175.048a.436.436 0 0 1 .11.128l.029.041c.232.329.667.497 1.06.421.08.554.283 1.092.581 1.567h-.571v.127h-.455v-.128l-6.21.09-.124-.791-.698-.287v-.294h-.813v-.723h-.67v-1.974h.706v-.723h2.771l2.43-.146.335-.31a.49.49 0 0 0 .108-.02c.023-.007.046-.014.07-.017.098-.01.19.071.277.16.165.172.33.358.381.586a.527.527 0 0 1-.002.222zM29.039 8.99h1.534v-.805c.709-.391 1.529-1.8 1.67-2.051h2.306c-.031.296.027.597.08.865l.37 1.89.069-.013-.07.014.24 1.226c.034.174.07.354.123.528l-.49-.063-.054-.164-.283-.028.045.186h-.119l-.311.366h-.53l-1.194-.733h-.593v.733h-.386v-.271h-.19v-.339h-2.173l-.044-1.341zm-5.588 4.412v-1.61h2.642v.144h2.903l.083.963.326.222-.24.12.598 1.423v2.102h-.145v.503h.147l.007.201-4.82.112v-2.931h-1.5v-1.249zm.531-7.138v-.13h.403l-.002-.041h.428v.15h.452v-.014h.28v.343l-.3.244v.43h.408v.067l-.229.152.205.336h.55l.084-.115h.568l.078-.078 1.048 2.24v1.166h.353v.78h-2.073v-.144h-2.992V8.994h1.478V6.658l-.739-.394zm-9.244 5.82v-1.015h.6v.397h.824l.028-.452-.154.039-.017-.433h-.024l.14-.094h.312l-.022.262h.342l.118.09h.682v-.224l1.034.007v.724h.421v-.75h1.26v1.157h3.028v1.54h-1.107l-1.984 1.242v.188l-3.335.121-.108-1.443h-.574v-1.356h-1.464zm8.18 9.477l-.08-3.788 2.045-.047 4.893-.114.15 4.762-2.82-.51-3.71-.09-.477-.213zm-2.438-3.134v-.6l2.216-.05.08 3.72-2.296-1.019v-2.05zm9.895 13.394l-.071.001.07-.001-.01-.597.845-.264v.373h1.951l-.008-.271h1.96l.126.18h2.027v.53l.398.562.018.791.008.372-.97.288h-1.144v.407h-1.231l-.109.407h-1.534v.451l-2.266.664-.06-3.893zm-.422 21.975l-.069-3.356h.781l-.045-2.884 3.438-.063.159 5.381h-.074l-1.178-.562-.264-.007v1.491h-2.748zm10.021 3.485l-.001-.041h-.022l-.575-1.007-.117-3.217h4.803v.407h.705V55.836h.596l.024-.036.012.09h.208V58.604H44.17l-.163-.153h-.288l.186-.233v-.319h-2.89v.412l-.436.03-.605-1.06zm18.75 6.535l-.193.288V69.584c-.09.38-.192.809-.121 1.227.01.065.026.129.04.193.01.038.018.076.026.114.07.335.07.684.06 1.025a4.69 4.69 0 0 1-.964-.877c-.347-.417-.568-.84-.658-1.255l-.082-.382-.057.386c-.02.137-.132.312-.224.312h-.07v1.808h-3.202c-.282 0-.969-.182-1.105-.218l-1.788-2.697v-1.986l.994-2.554 1.011-1.311.013-.388.449-.231v-2.525l-.194-.422 2.859-.127v.269l3.236-.06v.993l.167.167v1.087l-.488.687v.997h.29zm.083-9.614h.456l1.358.735.018.525.135.69-1.37.057.003.142h1.376v1.303c0 .04.006.078.017.113l-1.88 1.26v.31h-.166v.406l-.1.002-2.948-2.784-2.867-2.707 4.788-.052.578-.508h.412l.19.508z"/>
</svg>
