<svg xmlns="http://www.w3.org/2000/svg" width="20" height="20" viewBox="0 0 20 20">
    <g fill="none" fill-rule="evenodd">
        <path fill="#FFF" d="M-643-465H381v870H-643z"/>
        <g transform="translate(1 1)">
            <circle cx="9" cy="9" r="9" stroke="#ADADAD" stroke-width=".5"/>
            <path fill="#767676" d="M10.3 11.139c-.015.332.298.498.94.498v.896H7.333v-.896c.628 0 .941-.166.941-.498V8.294c0-.34-.313-.509-.94-.509V6.9H10.3v4.239zm.1-6.032c0 .155-.03.3-.09.437a1.198 1.198 0 0 1-.237.36 1.084 1.084 0 0 1-.792.332 1.05 1.05 0 0 1-.431-.089 1.167 1.167 0 0 1-.598-.603 1.09 1.09 0 0 1-.089-.437c0-.155.03-.299.089-.432a1.1 1.1 0 0 1 .243-.348c.104-.1.222-.18.355-.238A1.05 1.05 0 0 1 9.28 4a1.128 1.128 0 0 1 1.03.675c.059.133.088.277.088.432z"/>
        </g>
    </g>
</svg>
