<svg xmlns="http://www.w3.org/2000/svg" width="18" height="14" viewBox="0 0 18 14">
    <path fill="#005EF4" fill-rule="nonzero" d="M4.308 2.288V.942c0-.297.24-.538.538-.538h11.846c.298 0 .539.24.539.538v1.346a.538.538 0 0 1-.539.539H4.846a.538.538 0 0 1-.538-.539zm.538 5.924h11.846a.538.538 0 0 0 .539-.539V6.327a.538.538 0 0 0-.539-.539H4.846a.538.538 0 0 0-.538.539v1.346c0 .297.24.539.538.539zm0 5.384h11.846a.538.538 0 0 0 .539-.538v-1.346a.538.538 0 0 0-.539-.539H4.846a.538.538 0 0 0-.538.539v1.346c0 .297.24.538.538.538zM.538 3.231h2.154a.538.538 0 0 0 .539-.539V.538A.538.538 0 0 0 2.692 0H.538A.538.538 0 0 0 0 .538v2.154c0 .298.241.539.538.539zm0 5.384h2.154a.538.538 0 0 0 .539-.538V5.923a.538.538 0 0 0-.539-.538H.538A.538.538 0 0 0 0 5.923v2.154c0 .297.241.538.538.538zm0 5.385h2.154a.538.538 0 0 0 .539-.538v-2.154a.538.538 0 0 0-.539-.539H.538a.538.538 0 0 0-.538.539v2.154c0 .297.241.538.538.538z"/>
</svg>
