<svg width="15" height="14" viewBox="0 0 15 14" fill="none" xmlns="http://www.w3.org/2000/svg">
<path d="M5.95312 0.914062L6.64687 0.220312C6.94062 -0.0734375 7.41563 -0.0734375 7.70625 0.220312L13.7812 6.29219C14.075 6.58594 14.075 7.06094 13.7812 7.35156L7.70625 13.4266C7.4125 13.7203 6.9375 13.7203 6.64687 13.4266L5.95312 12.7328C5.65625 12.4359 5.6625 11.9516 5.96562 11.6609L9.73125 8.07344H0.75C0.334375 8.07344 0 7.73906 0 7.32344V6.32344C0 5.90781 0.334375 5.57344 0.75 5.57344H9.73125L5.96562 1.98594C5.65937 1.69531 5.65312 1.21094 5.95312 0.914062Z" fill="#187110"/>
</svg>
