<svg xmlns="http://www.w3.org/2000/svg" width="32" height="26" viewBox="0 0 32 26">
    <g fill="none" fill-rule="evenodd" transform="translate(1 1)">
        <path fill="#DBDBDB" d="M12 24H2a2 2 0 0 1-2-2V2a2 2 0 0 1 2-2h10v24z"/>
        <path fill="#D8D8D8" stroke="#979797" d="M2.5 3.5h7v1h-7zM2.5 7.5h7v1h-7z"/>
        <path fill="#DBDBDB" d="M18 24h10a2 2 0 0 0 2-2V2a2 2 0 0 0-2-2H18v24z"/>
        <path fill="#D8D8D8" stroke="#979797" d="M27.5 3.5h-7v1h7zM27.5 7.5h-7v1h7z"/>
        <rect width="30" height="24" stroke="#ADADAD" rx="2"/>
    </g>
</svg>
