<svg xmlns="http://www.w3.org/2000/svg" width="68" height="68" viewBox="0 0 68 68">
    <g fill="#FFF" fill-rule="evenodd">
        <path fill-opacity=".5" d="M32.948 57.003l-2.045-1.213.045-.076 2.045 1.214zM34.8 53.84l-.02-.086 1.183-.285.02.086z"/>
        <path fill-opacity=".5" d="M34.834 53.801l-.088-.01.16-1.5.088.009z"/>
        <path fill-opacity=".5" d="M33.914 53.294l-.058-.065 1.065-.966.058.065z"/>
        <path fill-opacity=".5" d="M34.767 53.834l-.905-.535.045-.075.905.534z"/>
        <path fill-opacity=".5" d="M34.759 53.827l-1.446-1.48.062-.061 1.446 1.48z"/>
        <path fill-opacity=".5" d="M33.385 52.33l-.082-.028.414-1.179.083.03z"/>
        <path fill-opacity=".5" d="M33.344 52.36v-.088l1.605-.02.002.087z"/>
        <path fill-opacity=".5" d="M34.92 52.327l-1.192-1.158.061-.063 1.192 1.158z"/>
        <path fill-opacity=".5" d="M36.266 52.73l-2.53-1.555.046-.075 2.53 1.556z"/>
        <path fill-opacity=".5" d="M34.66 51.291l-.907-.11.011-.087.907.11z"/>
        <path fill-opacity=".5" d="M36.435 51.575l-1.776-.284.014-.087 1.776.285z"/>
        <path fill-opacity=".5" d="M36.413 51.565l-.877-.769.058-.066.877.77z"/>
        <path fill-opacity=".5" d="M36.333 52.699l-.088-.012.154-1.16.087.011zM41.086 50.467l-.078-.04 1.085-2.116.078.04zM37.928 47.36l-2.367-.23.008-.087 2.367.23zM17.314 43.285l-1.347-1.983.073-.05 1.347 1.984zM18.12 39.7l-1.314-1.529.067-.057 1.314 1.528zM19.28 36.41l-.03-.081 1.01-.38.03.083z"/>
        <path fill-opacity=".5" d="M21.037 36.84l-.794-.819.063-.061.794.819z"/>
        <path fill-opacity=".5" d="M20.23 35.996l-.157-1.205.087-.012.158 1.206zM17.312 29.607l-.478-.95.078-.04.478.95z"/>
        <path fill-opacity=".5" d="M16.867 28.68l-1.088-.157.012-.087 1.088.158z"/>
        <path fill-opacity=".5" d="M16.908 28.663l-.07-.052.7-.954.071.052z"/>
        <path fill-opacity=".5" d="M17.394 29.592l-.087-.01.223-1.904.088.01zM8.166 24.66l-.07-1.803.087-.003.07 1.802zM14.558 25.034l-.086-.01.267-2.174.088.01zM17.77 22.712l-.047-.074.963-.62.048.074zM19.526 22.542l-1.01-1.431.072-.051 1.01 1.432zM24.243 30.572l-.081-.032.759-1.92.081.033z"/>
        <path fill-opacity=".5" d="M24.995 28.666l-.066-.057 1.18-1.37.066.056z"/>
        <path fill-opacity=".5" d="M24.977 28.678l-.03-.082 13.35-4.904.03.083zM24.232 30.588l-.06-.064 2.224-2.077.06.064z"/>
        <path fill-opacity=".5" d="M24.202 30.6h3.286v-.088h-3.286z"/>
        <path fill-opacity=".5" d="M27.483 30.6l-2.115-.225.009-.087 2.115.224z"/>
        <path fill-opacity=".5" d="M25.33 30.342l-.411-1.694.085-.021.411 1.695zM27.461 30.591l-1.614-1.22.053-.07 1.614 1.22z"/>
        <path fill-opacity=".5" d="M33.31 34.619l-5.847-4.027.05-.072 5.846 4.027z"/>
        <path fill-opacity=".5" d="M33.31 34.619l-8.374-5.946.05-.072 8.374 5.946z"/>
        <path fill-opacity=".5" d="M25.412 30.352l-.078-.04.5-.995.078.04zM27.449 30.576L26.387 28.5l.078-.04 1.062 2.077z"/>
        <path fill-opacity=".5" d="M26.39 28.505l-1.517-2.06.071-.051 1.517 2.059zM24.21 30.6l-.016-.087 1.17-.224.017.086z"/>
        <path fill-opacity=".5" d="M25.36 30.374l-2.616-.838.027-.083 2.615.837z"/>
        <path fill-opacity=".5" d="M22.773 29.536l-.031-.082 2.204-.858.032.082z"/>
        <path fill-opacity=".5" d="M23.797 29.696l-.632-.875.07-.051.633.875z"/>
        <path fill-opacity=".5" d="M24.164 30.578l-1.002-1.761.076-.043 1.003 1.76z"/>
        <path fill-opacity=".5" d="M23.825 29.714l-1.075-.176.015-.087 1.074.176z"/>
        <path fill-opacity=".5" d="M23.862 29.703l-.06-.065 1.13-1.033.06.065z"/>
        <path fill-opacity=".5" d="M24.938 28.674l-1.13-.733.048-.073 1.13.732z"/>
        <path fill-opacity=".5" d="M24.944 28.678l-2.143-.928.036-.081 2.142.928zM22.795 29.518l-.075-.047.443-.7.074.048z"/>
        <path fill-opacity=".5" d="M22.794 29.52l-.073-.05 1.075-1.59.073.05z"/>
        <path fill-opacity=".5" d="M23.824 27.948l-1.013-.196.016-.086 1.014.195z"/>
        <path fill-opacity=".5" d="M22.829 27.752l-.02-.085 1.698-.38.019.086z"/>
        <path fill-opacity=".5" d="M33.307 34.617l-8.819-7.253.056-.068 8.818 7.253z"/>
        <path fill-opacity=".5" d="M24.556 27.347l-.08-.034.392-.91.08.034z"/>
        <path fill-opacity=".5" d="M25.365 27.289l-.494-.847.075-.044.495.847z"/>
        <path fill-opacity=".5" d="M23.225 28.831l-.05-.072 2.203-1.528.05.072zM27.82 35.49l-.042-.077 5.87-3.29.044.076z"/>
        <path fill-opacity=".5" d="M26.546 35.207l-.034-.081 7.141-3.006.034.082z"/>
        <path fill-opacity=".5" d="M26.563 35.194l-.068-.055.89-1.1.07.056z"/>
        <path fill-opacity=".5" d="M27.433 34.109l-.026-.084 6.25-1.906.026.084zM26.524 35.21l-1.285-.158.01-.087 1.285.158z"/>
        <path fill-opacity=".5" d="M25.433 36.244l-.06-.064 1.126-1.046.06.065z"/>
        <path fill-opacity=".5" d="M27.79 35.494l-1.27-.285.019-.085 1.27.284z"/>
        <path fill-opacity=".5" d="M27.757 35.463l-.38-1.384.085-.024.38 1.384zM36.302 39.445l-.41-8.416.087-.004.411 8.415zM22.977 16.644h.087v-1.999h-.087zM28.05 15.343l-.04-.078 1.735-.918.041.078zM35.796 10.706l-1.082-.093.007-.087 1.082.092z"/>
        <path fill-opacity=".5" d="M35.833 10.69l-.067-.056.743-.894.068.056z"/>
        <path fill-opacity=".5" d="M36.071 11.628l-.313-.953.083-.027.314.953zM43.168 13.955l-.035-.08 1.28-.554.035.08z"/>
        <path fill-opacity=".5" d="M44.408 13.4l-1.23-.714.044-.076 1.23.713z"/>
        <path fill-opacity=".5" d="M44.387 13.37l-.272-1.429.087-.016.271 1.428z"/>
        <path fill-opacity=".5" d="M45.287 14.31l-1.168-2.357.079-.04 1.167 2.358z"/>
        <path fill-opacity=".5" d="M43.21 12.69l-.019-.085 2.086-.44.018.086zM44.528 18.297l-.02-.085 2.31-.57.02.086zM51.007 12.389l-1.22-1.997.074-.046 1.221 1.997zM51.881 31.186l-.26-1.98.087-.012.26 1.981zM40.391 23.354l-1.045-1.05.062-.061 1.046 1.048z"/>
        <path fill-opacity=".5" d="M43.089 28.373l-2.705-5.03.077-.041 2.705 5.03z"/>
        <path fill-opacity=".5" d="M43.087 28.371l-1.758-3.794.08-.037 1.758 3.794zM41.793 23.181l-2.43-.866.029-.082 2.43.865z"/>
        <path fill-opacity=".5" d="M39.385 22.317l-.015-.087 2.145-.377.015.087z"/>
        <path fill-opacity=".5" d="M39.4 22.311l-.045-.075 1.045-.622.045.075z"/>
        <path fill-opacity=".5" d="M41.775 23.17l-1.385-1.488.065-.06 1.384 1.488zM38.347 23.76l-.07-.052 1.064-1.46.071.052z"/>
        <path fill-opacity=".5" d="M38.334 23.772l-.044-.077 3.21-1.837.044.077z"/>
        <path fill-opacity=".5" d="M38.32 23.777l-.017-.086 2.111-.411.017.086z"/>
        <path fill-opacity=".5" d="M40.429 23.366l-.012-.087 1.385-.183.011.087z"/>
        <path fill-opacity=".5" d="M40.458 23.35l-.07-.054 1.1-1.426.07.053z"/>
        <path fill-opacity=".5" d="M40.379 23.323h.087v-1.671h-.087z"/>
        <path fill-opacity=".5" d="M41.327 24.572l-.946-2.907.083-.027.947 2.906zM37.445 17.615l-.077-.043.696-1.235.076.043z"/>
        <path fill-opacity=".5" d="M37.425 17.633l-.037-.08 2.078-.949.037.08z"/>
        <path fill-opacity=".5" d="M39.45 16.67l-1.383-1.84.07-.053 1.382 1.84zM37.363 17.6l-.295-2.139.088-.012.294 2.138z"/>
        <path fill-opacity=".5" d="M37.368 17.615l-.61-1.087.076-.043.611 1.087z"/>
        <path fill-opacity=".5" d="M37.45 17.604l-.086-.021.695-2.79.086.021z"/>
        <path fill-opacity=".5" d="M37.136 15.492l-.048-.074.99-.651.048.073z"/>
        <path fill-opacity=".5" d="M36.831 16.533l-.07-.053 1.306-1.742.07.053zM37.44 17.623l-.066-.06 1.97-2.196.066.059z"/>
        <path fill-opacity=".5" d="M37.425 17.633l-.037-.08 2.078-.949.037.08z"/>
        <path fill-opacity=".5" d="M38.683 17.704l-.621-1.327.08-.038.62 1.328z"/>
        <path fill-opacity=".5" d="M39.475 16.687l-1.382-.286.018-.086 1.382.286z"/>
        <path fill-opacity=".5" d="M38.128 16.393l-.052-.07 1.275-.962.053.07z"/>
        <path fill-opacity=".5" d="M38.058 16.358h.088v-1.554h-.088z"/>
        <path fill-opacity=".5" d="M38.072 16.39l-.99-.902.06-.065.99.903z"/>
        <path fill-opacity=".5" d="M36.8 16.55l-.01-.087 1.307-.148.01.087zM38.72 17.73l-1.317-.093.007-.088 1.316.093z"/>
        <path fill-opacity=".5" d="M38.7 17.723l-1.927-1.179.046-.075 1.927 1.18z"/>
        <path fill-opacity=".5" d="M38.687 17.711l-1.611-2.23.071-.052 1.611 2.231z"/>
        <path fill-opacity=".5" d="M38.68 17.695l-.621-2.922.086-.017.62 2.92z"/>
        <path fill-opacity=".5" d="M38.765 17.698l-.085-.024.655-2.29.085.024z"/>
        <path fill-opacity=".5" d="M37.44 17.623l-.066-.06 1.97-2.196.066.059z"/>
        <path fill-opacity=".5" d="M36.813 16.547l-.035-.08 2.582-1.111.034.08z"/>
        <path fill-opacity=".5" d="M37.113 15.499l-.002-.088 2.265-.059.002.088z"/>
        <path fill-opacity=".5" d="M39.358 15.436l-1.247-.593.039-.079 1.246.592zM38.758 17.712l-.07-.052.76-1.042.072.052z"/>
        <path fill-opacity=".5" d="M39.482 16.688l-2.688-.138.004-.087 2.688.137z"/>
        <path fill-opacity=".5" d="M39.464 16.683l-2.372-1.189.04-.078 2.372 1.189z"/>
        <path fill-opacity=".5" d="M39.449 16.67l-1.382-1.88.07-.051 1.383 1.879zM29.025 39.919l-.088-.005.877-17.557.088.004zM26.163 44.878l-.043-.077 2.296-1.294.043.077z"/>
        <path fill-opacity=".5" d="M29.447 45.814l-1.05-2.25.08-.037 1.05 2.25z"/>
        <path fill-opacity=".5" d="M30.815 44.562l-2.394-.976.033-.081 2.395.976z"/>
        <path fill-opacity=".5" d="M29.517 45.827l-.06-.063 1.345-1.275.06.064z"/>
        <path fill-opacity=".5" d="M30.788 44.521h.088v-1.45h-.088z"/>
        <path fill-opacity=".5" d="M29.526 45.815l-.079-.04 1.346-2.723.078.038z"/>
        <path fill-opacity=".5" d="M30.85 43.111l-.035-.08 7.948-3.4.034.08zM29.448 45.815l-2.225-4.425.078-.04 2.225 4.426z"/>
        <path fill-opacity=".5" d="M27.269 41.413l-.013-.086 11.517-1.7.013.088z"/>
        <path fill-opacity=".5" d="M38.74 39.688l-.842-1.965.08-.034.842 1.965zM35.638 41.825l-8.378-.411.004-.088 8.379.411zM30.802 44.553l-2.584-2.461.06-.064 2.584 2.461z"/>
        <path fill-opacity=".5" d="M30.793 44.542l-1.598-3.06.078-.04 1.598 3.059z"/>
        <path fill-opacity=".5" d="M30.865 44.55l-.066-.058 4.018-4.634.066.058z"/>
        <path fill-opacity=".5" d="M34.88 39.92l-.06-.065 7.463-6.89.06.064zM36.671 37.407l-.067-.057 5.97-7.015.067.057z"/>
        <path fill-opacity=".5" d="M34.884 39.915l-.068-.056 7.758-9.523.068.055zM27.063 45.616l-.859-2.054.081-.034.86 2.054z"/>
        <path fill-opacity=".5" d="M27.123 45.638l-.038-.079 2.383-1.17.038.08z"/>
        <path fill-opacity=".5" d="M29.518 44.46l-.062-.063 1.345-1.324.062.062zM26.274 43.577l-.06-.064.96-.882.06.065z"/>
        <path fill-opacity=".5" d="M26.28 43.572l-.07-.053 2.736-3.629.07.053z"/>
        <path fill-opacity=".5" d="M28.29 42.074l-.084-.028.734-2.143.082.028z"/>
        <path fill-opacity=".5" d="M29.19 41.47l-.252-1.546.087-.014.252 1.545z"/>
        <path fill-opacity=".5" d="M29.19 42.536l-.253-2.615.088-.009.253 2.616z"/>
        <path fill-opacity=".5" d="M30.01 41.954l-1.068-2.017.078-.04 1.067 2.016z"/>
        <path fill-opacity=".5" d="M30.794 43.093l-1.85-3.154.075-.044 1.851 3.154zM26.259 43.587l-.028-.083 2.989-1.014.028.084z"/>
        <path fill-opacity=".5" d="M26.245 43.589h2.193v-.088h-2.193z"/>
        <path fill-opacity=".5" d="M27.255 43.747l-1.017-.158.014-.087 1.017.158z"/>
        <path fill-opacity=".5" d="M26.25 43.589l-.01-.087 4.587-.475.01.088zM28.184 45.968l-.735-1.327.077-.042.735 1.327z"/>
        <path fill-opacity=".5" d="M27.52 44.649l-.065-.058.95-1.075.066.058z"/>
        <path fill-opacity=".5" d="M28.472 43.572l-.069-.054.796-1.013.07.054z"/>
        <path fill-opacity=".5" d="M28.469 43.576l-.062-.062 1.61-1.612.063.062z"/>
        <path fill-opacity=".5" d="M28.445 43.588l-.015-.086 1.239-.221.015.086zM29.465 45.833l-2-1.175.045-.076 2 1.176zM36.809 41.824l-2.192-.599.024-.084 2.19.598z"/>
        <path fill-opacity=".5" d="M34.645 41.224l-.032-.082 1.187-.474.032.082z"/>
        <path fill-opacity=".5" d="M34.66 41.214l-.063-.062 1.718-1.74.063.061z"/>
        <path fill-opacity=".5" d="M34.672 41.19l-.086-.014.22-1.296.088.014z"/>
        <path fill-opacity=".5" d="M34.863 39.93l-.025-.085 1.496-.445.025.085z"/>
        <path fill-opacity=".5" d="M35.856 40.726l-.08-.034.53-1.266.08.033z"/>
        <path fill-opacity=".5" d="M35.774 40.72l-1.988-7.137.084-.023 1.988 7.137z"/>
        <path fill-opacity=".5" d="M36.325 39.481l-1.59-.851.041-.077 1.591.85z"/>
        <path fill-opacity=".5" d="M36.784 41.805l-2.065-3.19.073-.048 2.065 3.19z"/>
        <path fill-opacity=".5" d="M36.861 41.797l-.081-.032.742-1.894.082.032z"/>
        <path fill-opacity=".5" d="M36.862 41.796l-.083-.03 1.027-2.89.083.03zM34.719 38.616l-2.958-4.42.073-.049 2.958 4.42z"/>
        <path fill-opacity=".5" d="M36.313 39.471l-4.549-5.27.067-.058 4.549 5.271z"/>
        <path fill-opacity=".5" d="M37.532 39.918l-5.766-5.715.062-.062 5.766 5.715z"/>
        <path fill-opacity=".5" d="M37.916 37.744l-6.14-3.534.043-.076 6.14 3.534z"/>
        <path fill-opacity=".5" d="M36.587 37.374l-4.814-3.165.048-.074 4.814 3.165zM37.843 38.935l-3.092-.3.009-.088 3.092.3z"/>
        <path fill-opacity=".5" d="M36.309 39.465l-1.307-2.147.075-.046 1.307 2.148z"/>
        <path fill-opacity=".5" d="M36.304 39.456l-.386-1.228.084-.026.386 1.227z"/>
        <path fill-opacity=".5" d="M36.39 39.449l-.087-.012.291-2.064.087.012z"/>
        <path fill-opacity=".5" d="M36.635 37.423l-1.597-.084.004-.088 1.598.084z"/>
        <path fill-opacity=".5" d="M37.927 37.749l-1.3-.328.022-.085 1.3.328z"/>
        <path fill-opacity=".5" d="M37.813 38.919l-1.21-1.513.07-.055 1.209 1.513z"/>
        <path fill-opacity=".5" d="M37.826 38.93l-2.808-1.596.043-.077 2.808 1.596zM37.927 37.749l-1.3-.328.022-.085 1.3.328z"/>
        <path fill-opacity=".5" d="M36.379 39.472l-.065-.059 1.592-1.737.064.06z"/>
        <path fill-opacity=".5" d="M37.817 40.99l-1.502-1.517.063-.061 1.501 1.516z"/>
        <path fill-opacity=".5" d="M37.883 40.985l-.071-.052.932-1.288.071.052z"/>
        <path fill-opacity=".5" d="M38.776 39.715l-2.434-.229.008-.087 2.434.228z"/>
        <path fill-opacity=".5" d="M37.548 39.928l-1.217-.444.03-.083 1.217.445z"/>
        <path fill-opacity=".5" d="M37.548 39.928l-1.217-.444.03-.083 1.217.445z"/>
        <path fill-opacity=".5" d="M36.362 39.484l-.03-.083 1.5-.55.03.082z"/>
        <path fill-opacity=".5" d="M36.855 40.63l-.548-1.169.079-.037.549 1.17zM34.588 41.2l-2.831-7.012.08-.033 2.833 7.012zM42.869 43.549l-.078-.04 1.084-2.117.079.04zM34.758 31.012l-.006-.087 5.826-.365.006.087z"/>
        <path fill-opacity=".5" d="M40.62 30.623l-.078-.04.436-.858.078.04z"/>
        <path fill-opacity=".5" d="M41.024 29.789l-.014-.087 2.332-.357.013.087z"/>
        <path fill-opacity=".5" d="M43.316 29.418l-1.256-1.35.064-.06 1.257 1.35z"/>
        <path fill-opacity=".5" d="M41.041 29.782l-.048-.074 2.11-1.392.048.073z"/>
        <path fill-opacity=".5" d="M44.63 31.206l-1.541-2.832.077-.043 1.542 2.833z"/>
        <path fill-opacity=".5" d="M43.305 29.398l-.22-1.036.085-.019.222 1.036z"/>
        <path fill-opacity=".5" d="M42.418 29.137l-.063-.061.741-.754.063.061zM42.575 30.392l-1.37-1.568.066-.058 1.37 1.569z"/>
        <path fill-opacity=".5" d="M40.598 30.644l-.035-.08 2.768-1.216.035.08z"/>
        <path fill-opacity=".5" d="M42.643 30.39l-.07-.053.74-.975.07.053z"/>
        <path fill-opacity=".5" d="M42.614 30.407l-.012-.087 1.342-.173.011.087z"/>
        <path fill-opacity=".5" d="M42.635 30.398l-.054-.069 1.752-1.386.055.069z"/>
        <path fill-opacity=".5" d="M42.65 30.374l-.085-.021.52-2.011.085.022z"/>
        <path fill-opacity=".5" d="M42.635 30.398l-.054-.069 1.752-1.386.055.069z"/>
        <path fill-opacity=".5" d="M43.99 30.204l-.082-.028.41-1.213.084.029z"/>
        <path fill-opacity=".5" d="M45.048 30.126l-.725-1.125.074-.047.725 1.124z"/>
        <path fill-opacity=".5" d="M42.613 30.407l-.01-.087 2.477-.261.01.087z"/>
        <path fill-opacity=".5" d="M42.113 31.853l-.043-.076 2.993-1.713.044.076z"/>
        <path fill-opacity=".5" d="M42.27 33.005l-.221-1.182.086-.016.221 1.181z"/>
        <path fill-opacity=".5" d="M42.048 31.815h.088v-3.776h-.088z"/>
        <path fill-opacity=".5" d="M42.05 31.827l-.854-3.02.085-.024.853 3.02zM42.976 31.89l-.41-1.515.084-.023.411 1.515z"/>
        <path fill-opacity=".5" d="M43.664 31.591l-1.089-1.198.065-.059 1.088 1.199z"/>
        <path fill-opacity=".5" d="M43.683 31.604l-2.229-.725.027-.084 2.229.725z"/>
        <path fill-opacity=".5" d="M41.505 30.862l-.074-.05 1.66-2.484.073.049z"/>
        <path fill-opacity=".5" d="M44.64 31.218l-2.283-2.08.06-.064 2.282 2.079zM33.703 32.19l-.065-.059 1.085-1.192.065.06z"/>
        <path fill-opacity=".5" d="M33.679 32.204l-.017-.086 1.447-.285.016.087z"/>
        <path fill-opacity=".5" d="M35.013 33.276l-1.37-1.08.054-.07 1.37 1.08z"/>
        <path fill-opacity=".5" d="M34.641 34.652l-1.011-2.474.08-.034 1.012 2.475z"/>
        <path fill-opacity=".5" d="M33.378 34.589l-.087-.012.336-2.422.087.012z"/>
        <path fill-opacity=".5" d="M33.795 33.6l-1.465-1.695.066-.057 1.465 1.695z"/>
        <path fill-opacity=".5" d="M33.818 33.614l-.96-.221.02-.086.96.221z"/>
        <path fill-opacity=".5" d="M32.905 33.375l-.073-.05.802-1.189.073.05z"/>
        <path fill-opacity=".5" d="M33.633 32.184l-.68-1.134.075-.045.68 1.134z"/>
        <path fill-opacity=".5" d="M33.714 32.166l-.087-.01.158-1.482.087.01z"/>
        <path fill-opacity=".5" d="M33.712 32.175l-.083-.028.769-2.29.083.028z"/>
        <path fill-opacity=".5" d="M33.628 32.173l-.672-2.398.085-.024.672 2.398z"/>
        <path fill-opacity=".5" d="M33.643 32.195l-1.77-1.418.055-.069 1.77 1.419zM33.302 34.612l-2.028-2.236.064-.06 2.029 2.237z"/>
        <path fill-opacity=".5" d="M34.657 34.672l-3.376-2.29.05-.072 3.375 2.29z"/>
        <path fill-opacity=".5" d="M34.718 34.66l-.073-.049 1.546-2.289.072.049zM33.362 34.617l-.055-.069 1.706-1.341.054.069z"/>
        <path fill-opacity=".5" d="M35.08 33.258l-.08-.033.895-2.214.081.033z"/>
        <path fill-opacity=".5" d="M35.002 33.263l-2.041-3.478.075-.044 2.042 3.478z"/>
        <path fill-opacity=".5" d="M34.997 33.249l-.6-3.37.085-.016.601 3.37zM35.953 31.068l-.035-.081 5.303-2.232.034.08z"/>
        <path fill-opacity=".5" d="M41.267 28.828l-.058-.066.854-.756.058.066z"/>
        <path fill-opacity=".5" d="M44.644 31.221l-3.431-2.39.05-.072 3.432 2.39z"/>
        <path fill-opacity=".5" d="M41.248 28.838l-.02-.085 1.89-.443.02.085zM44.665 31.23l-3.202-.35.01-.087 3.201.349zM29.219 23.702l-.936-.974.064-.061.935.974z"/>
        <path fill-opacity=".5" d="M29.207 23.68l-.569-3.238.086-.015.57 3.237z"/>
        <path fill-opacity=".5" d="M29.288 23.694l-.076-.044 1.412-2.43.076.045zM29.843 22.4l-2.119-.797.031-.083 2.119.798z"/>
        <path fill-opacity=".5" d="M31.466 23.126l-1.626-.727.036-.08 1.625.727z"/>
        <path fill-opacity=".5" d="M29.894 22.385l-.071-.052.803-1.116.071.052z"/>
        <path fill-opacity=".5" d="M29.866 22.402l-.016-.086 1.312-.243.016.086z"/>
        <path fill-opacity=".5" d="M29.815 22.365l-.188-1.369.088-.012.187 1.369z"/>
        <path fill-opacity=".5" d="M29.902 22.36l-.088-.002.066-2.426.088.003z"/>
        <path fill-opacity=".5" d="M30.415 23.552l-.535-3.612.087-.013.535 3.612z"/>
        <path fill-opacity=".5" d="M31.132 22.138l-1.246-2.183.076-.043 1.246 2.182z"/>
        <path fill-opacity=".5" d="M27.758 21.602l-.036-.08 3.43-1.538.036.08z"/>
        <path fill-opacity=".5" d="M28.345 22.73l-.06-.065 2.855-2.673.06.064z"/>
        <path fill-opacity=".5" d="M28.358 22.704l-.087-.014.367-2.262.087.014zM30.493 23.572l-.069-.054 1.436-1.838.07.054z"/>
        <path fill-opacity=".5" d="M31.44 23.09l-.314-3.062.088-.009.313 3.063z"/>
        <path fill-opacity=".5" d="M31.453 23.118l-2.802-2.651.06-.064 2.803 2.651z"/>
        <path fill-opacity=".5" d="M29.82 22.382l-1.176-1.924.075-.046 1.177 1.924z"/>
        <path stroke="#FFF" stroke-width=".5" d="M8.367 24.658a.158.158 0 1 1-.315 0 .158.158 0 0 1 .315 0M8.297 22.855a.158.158 0 1 1-.316 0 .158.158 0 0 1 .316 0M14.941 22.855a.158.158 0 1 1-.316 0 .158.158 0 0 1 .316 0M14.673 25.03a.158.158 0 1 1-.316 0 .158.158 0 0 1 .316 0M17.905 22.675a.158.158 0 1 1-.316 0 .158.158 0 0 1 .316 0M18.868 22.055a.158.158 0 1 1-.316 0 .158.158 0 0 1 .316 0M18.71 21.085a.158.158 0 1 1-.316 0 .158.158 0 0 1 .316 0M28.188 15.304a.158.158 0 1 1-.316 0 .158.158 0 0 1 .316 0M44.676 18.255a.158.158 0 1 1-.316 0 .158.158 0 0 1 .316 0M44.367 14.606a.158.158 0 1 1-.316 0 .158.158 0 0 1 .316 0M43.358 12.648a.158.158 0 1 1-.316 0 .158.158 0 0 1 .316 0M44.317 11.933a.158.158 0 1 1-.316 0 .158.158 0 0 1 .316 0M45.484 14.29a.158.158 0 1 1-.316 0 .158.158 0 0 1 .316 0M43.309 13.915a.158.158 0 1 1-.317-.001.158.158 0 0 1 .317 0M45.444 12.208a.158.158 0 1 1-.316 0 .158.158 0 0 1 .316 0M49.982 10.37a.158.158 0 1 1-.316 0 .158.158 0 0 1 .316 0M51.202 12.366a.158.158 0 1 1-.315 0 .158.158 0 0 1 .315 0M45.947 13.273a.158.158 0 1 1-.316 0 .158.158 0 0 1 .316 0M29.924 14.386a.158.158 0 1 1-.316 0 .158.158 0 0 1 .316 0M46.986 17.686a.158.158 0 1 1-.316 0 .158.158 0 0 1 .316 0M36.271 11.614a.158.158 0 1 1-.316 0 .158.158 0 0 1 .316 0M34.875 10.57a.158.158 0 1 1-.315 0 .158.158 0 0 1 .315 0M36.7 9.768a.158.158 0 1 1-.315 0 .158.158 0 0 1 .316 0M19.72 22.517a.158.158 0 1 1-.316 0 .158.158 0 0 1 .316 0M15.943 28.48a.158.158 0 1 1-.316 0 .158.158 0 0 1 .316 0M19.424 36.37a.158.158 0 1 1-.316 0 .158.158 0 0 1 .316 0M20.274 34.785a.158.158 0 1 1-.316 0 .158.158 0 0 1 .316 0M21.226 36.81a.158.158 0 1 1-.316 0 .158.158 0 0 1 .316 0M25.56 36.212a.158.158 0 1 1-.315 0 .158.158 0 0 1 .316 0M25.402 35.008a.158.158 0 1 1-.315 0 .158.158 0 0 1 .315 0M18.312 39.67a.158.158 0 1 1-.316.001.158.158 0 0 1 .316 0M16.998 38.143a.158.158 0 1 1-.316 0 .158.158 0 0 1 .316 0M16.162 41.278a.158.158 0 1 1-.316 0 .158.158 0 0 1 .316 0M17.508 43.26a.158.158 0 1 1-.315 0 .158.158 0 0 1 .315 0M17.732 27.683a.158.158 0 1 1-.316 0 .158.158 0 0 1 .316 0M17.508 29.587a.158.158 0 1 1-.315 0 .158.158 0 0 1 .315 0M23.358 28.795a.158.158 0 1 1-.316 0 .158.158 0 0 1 .316 0M22.977 27.71a.158.158 0 1 1-.316 0 .158.158 0 0 1 .316 0M25.56 27.267a.158.158 0 1 1-.315 0 .158.158 0 0 1 .316 0M23.178 16.644a.158.158 0 1 1-.316 0 .158.158 0 0 1 .316 0M23.178 14.646a.158.158 0 1 1-.316 0 .158.158 0 0 1 .316 0M26.031 29.337a.158.158 0 1 1-.316 0 .158.158 0 0 1 .316 0M27.578 34.067a.158.158 0 1 1-.316 0 .158.158 0 0 1 .316 0M27.42 43.703a.158.158 0 1 1-.316 0 .158.158 0 0 1 .316 0M32.398 32.757a.158.158 0 1 1-.316 0 .158.158 0 0 1 .316 0M33.986 30.679a.158.158 0 1 1-.316 0 .158.158 0 0 1 .316 0M40.739 30.604a.158.158 0 1 1-.316 0 .158.158 0 0 1 .316 0M31.328 22.116a.158.158 0 1 1-.316 0 .158.158 0 0 1 .316 0M32.053 21.707a.158.158 0 1 1-.317 0 .158.158 0 0 1 .317 0M29.829 20.99a.158.158 0 1 1-.316 0 .158.158 0 0 1 .316 0M28.997 21.494a.158.158 0 1 1-.316 0 .158.158 0 0 1 .316 0M43.177 31.878a.158.158 0 1 1-.316 0 .158.158 0 0 1 .316 0M43.854 31.562a.158.158 0 1 1-.316 0 .158.158 0 0 1 .316 0M17.094 28.637a.221.221 0 1 1-.443 0 .221.221 0 0 1 .443 0M24.054 29.67a.221.221 0 1 1-.443 0 .221.221 0 0 1 .443 0M28.02 35.451a.221.221 0 1 1-.442 0 .221.221 0 0 1 .442 0M34.05 33.571a.221.221 0 1 1-.443 0 .221.221 0 0 1 .443 0M35.862 41.781a.221.221 0 1 1-.443 0 .221.221 0 0 1 .443 0M29.455 42.532a.221.221 0 1 1-.442 0 .221.221 0 0 1 .442 0M29.455 41.463a.221.221 0 1 1-.442 0 .221.221 0 0 1 .442 0M29.898 43.324a.221.221 0 1 1-.443 0 .221.221 0 0 1 .443 0M24.487 30.556a.285.285 0 1 1-.57 0 .285.285 0 0 1 .57 0M25.657 30.332a.285.285 0 1 1-.57 0 .285.285 0 0 1 .57 0M28.791 44.904a.285.285 0 1 1-.569 0 .285.285 0 0 1 .57 0M26.426 44.84a.285.285 0 1 1-.57 0 .285.285 0 0 1 .57 0M26.814 35.166a.284.284 0 1 1-.569 0 .284.284 0 0 1 .569 0M26.71 28.48a.285.285 0 1 1-.569 0 .285.285 0 0 1 .57 0M28.6 22.697a.285.285 0 1 1-.57 0 .285.285 0 0 1 .57 0M30.743 23.545a.285.285 0 1 1-.569 0 .285.285 0 0 1 .57 0M23.042 29.495a.285.285 0 1 1-.57 0 .285.285 0 0 1 .57 0M27.772 30.556a.285.285 0 1 1-.57 0 .285.285 0 0 1 .57 0M33.275 31.027a.285.285 0 1 1-.569 0 .285.285 0 0 1 .57 0M32.647 31.877a.285.285 0 1 1-.569 0 .285.285 0 0 1 .57 0M27.772 44.62a.285.285 0 1 1-.57 0 .285.285 0 0 1 .57 0M28.507 45.947a.284.284 0 1 1-.569 0 .284.284 0 0 1 .569 0M35.235 52.295a.285.285 0 1 1-.57 0 .285.285 0 0 1 .57 0M34.043 51.138a.285.285 0 1 1-.57 0 .285.285 0 0 1 .57 0M33.628 52.316a.285.285 0 1 1-.569 0 .285.285 0 0 1 .57 0M35.074 53.796a.285.285 0 1 1-.569 0 .285.285 0 0 1 .57 0M36.727 51.532a.285.285 0 1 1-.57 0 .285.285 0 0 1 .57 0M30.333 41.933a.285.285 0 1 1-.569 0 .285.285 0 0 1 .57 0M35.04 30.969a.285.285 0 1 1-.57 0 .285.285 0 0 1 .57 0M45.37 30.102a.285.285 0 1 1-.57 0 .285.285 0 0 1 .57 0M42.597 32.996a.285.285 0 1 1-.569 0 .285.285 0 0 1 .57 0M36.245 38.215a.285.285 0 1 1-.57 0 .285.285 0 0 1 .57 0M37.848 39.887a.285.285 0 1 1-.57 0 .285.285 0 0 1 .57 0M38.132 38.892a.285.285 0 1 1-.569 0 .285.285 0 0 1 .569 0M38.132 40.96a.285.285 0 1 1-.569 0 .285.285 0 0 1 .569 0M37.18 40.612a.285.285 0 1 1-.57 0 .285.285 0 0 1 .57 0M41.653 24.558a.285.285 0 1 1-.569 0 .285.285 0 0 1 .57 0M42.092 23.14a.285.285 0 1 1-.57 0 .285.285 0 0 1 .57 0M41.807 21.897a.284.284 0 1 1-.568 0 .284.284 0 0 1 .568 0M39.662 22.274a.285.285 0 1 1-.57 0 .285.285 0 0 1 .57 0M25.13 26.42a.221.221 0 1 1-.443 0 .221.221 0 0 1 .443 0M26.363 27.267a.221.221 0 1 1-.443 0 .221.221 0 0 1 .443 0M23.241 15.645a.221.221 0 1 1-.442 0 .221.221 0 0 1 .442 0M36.02 10.662a.221.221 0 1 1-.442 0 .221.221 0 0 1 .443 0M44.652 13.361a.221.221 0 1 1-.443 0 .221.221 0 0 1 .443 0M33.09 33.35a.221.221 0 1 1-.443 0 .221.221 0 0 1 .443 0M35.338 31.877a.221.221 0 1 1-.442 0 .221.221 0 0 1 .442 0M43.57 29.388a.221.221 0 1 1-.442 0 .221.221 0 0 1 .442 0M42.608 29.106a.221.221 0 1 1-.443 0 .221.221 0 0 1 .443 0M42.313 28.039a.221.221 0 1 1-.443 0 .221.221 0 0 1 .443 0M41.46 28.795a.221.221 0 1 1-.443 0 .221.221 0 0 1 .443 0M41.238 29.745a.221.221 0 1 1-.442 0 .221.221 0 0 1 .442 0M41.69 30.837a.221.221 0 1 1-.443 0 .221.221 0 0 1 .442 0M24.054 27.904a.221.221 0 1 1-.443 0 .221.221 0 0 1 .443 0M25.372 28.637a.41.41 0 1 1-.82 0 .41.41 0 0 1 .82 0M31.58 20.024a.411.411 0 1 1-.821 0 .411.411 0 0 1 .822 0M31.894 23.086a.41.41 0 1 1-.821 0 .41.41 0 0 1 .821 0M31.073 21.243a.411.411 0 1 1-.822 0 .411.411 0 0 1 .822 0M40.834 21.652a.411.411 0 1 1-.823 0 .411.411 0 0 1 .823 0M32.311 30.743a.411.411 0 1 1-.822 0 .411.411 0 0 1 .822 0M33.6 29.763a.6.6 0 1 1-1.202 0 .6.6 0 0 1 1.201 0M34.27 32.161a.6.6 0 1 1-1.2 0 .6.6 0 0 1 1.2 0M35.64 33.241a.6.6 0 1 1-1.2 0 .6.6 0 0 1 1.2 0M30.459 22.359a.6.6 0 1 1-1.201 0 .6.6 0 0 1 1.201 0M32.398 34.172a.6.6 0 1 1-1.201 0 .6.6 0 0 1 1.201 0M31.433 43.071a.6.6 0 1 1-1.202 0 .6.6 0 0 1 1.202 0M29.038 43.545a.6.6 0 1 1-1.2 0 .6.6 0 0 1 1.2 0M31.717 32.346a.411.411 0 1 1-.822 0 .411.411 0 0 1 .822 0M36.638 32.346a.411.411 0 1 1-.822 0 .411.411 0 0 1 .822 0M42.503 31.815a.411.411 0 1 1-.823 0 .411.411 0 0 1 .823 0M45.08 31.185a.411.411 0 1 1-.822 0 .411.411 0 0 1 .822 0M38.723 23.733a.411.411 0 1 1-.822 0 .411.411 0 0 1 .822 0M30.335 19.934a.411.411 0 1 1-.822 0 .411.411 0 0 1 .822 0M29.661 23.671a.41.41 0 1 1-.821.001.41.41 0 0 1 .821 0M28.15 21.562a.411.411 0 1 1-.821 0 .411.411 0 0 1 .822 0M29.092 20.435a.411.411 0 1 1-.822 0 .411.411 0 0 1 .822 0M40.834 23.323a.41.41 0 1 1-.822 0 .41.41 0 0 1 .822 0M43.019 30.363a.41.41 0 1 1-.822.001.41.41 0 0 1 .822 0M38.513 16.358a.411.411 0 1 1-.822 0 .411.411 0 0 1 .822 0M37.817 17.593a.41.41 0 1 1-.821 0 .41.41 0 0 1 .821 0M37.207 16.507a.411.411 0 1 1-.822 0 .411.411 0 0 1 .822 0M37.523 15.455a.41.41 0 1 1-.822 0 .41.41 0 0 1 .822 0M38.513 14.804a.411.411 0 1 1-.822 0 .411.411 0 0 1 .822 0M39.788 15.396a.411.411 0 1 1-.822 0 .411.411 0 0 1 .822 0M39.895 16.644a.41.41 0 1 1-.822 0 .41.41 0 0 1 .822 0M39.134 17.686a.41.41 0 1 1-.822 0 .41.41 0 0 1 .822 0M44.36 30.19a.41.41 0 1 1-.822 0 .41.41 0 0 1 .822 0M43.538 28.353a.411.411 0 1 1-.822 0 .411.411 0 0 1 .822 0M44.771 28.977a.411.411 0 1 1-.822 0 .411.411 0 0 1 .822 0M27.515 45.599a.411.411 0 1 1-.822 0 .411.411 0 0 1 .822 0M28.659 42.06a.41.41 0 1 1-.822 0 .41.41 0 0 1 .822 0M27.614 42.663a.41.41 0 1 1-.82 0 .41.41 0 0 1 .82 0M33.808 34.583a.474.474 0 1 1-.947 0 .474.474 0 0 1 .947 0M29.455 39.917a.474.474 0 1 1-.948 0 .474.474 0 0 1 .948 0M36.82 39.443a.474.474 0 1 1-.947 0 .474.474 0 0 1 .947 0M38.412 37.706a.474.474 0 1 1-.948 0 .474.474 0 0 1 .948 0M39.254 39.67a.474.474 0 1 1-.949 0 .474.474 0 0 1 .949 0M37.295 41.781a.474.474 0 1 1-.948 0 .474.474 0 0 1 .948 0M26.719 43.545a.474.474 0 1 1-.948 0 .474.474 0 0 1 .948 0M31.306 44.521a.474.474 0 1 1-.948 0 .474.474 0 0 1 .948 0M29.961 45.795a.474.474 0 1 1-.949 0 .474.474 0 0 1 .95 0M35.093 34.636a.41.41 0 1 1-.821 0 .41.41 0 0 1 .82 0M35.45 37.295a.41.41 0 1 1-.82 0 .41.41 0 0 1 .82 0M37.049 37.379a.41.41 0 1 1-.822 0 .41.41 0 0 1 .822 0M35.166 38.591a.41.41 0 1 1-.821 0 .41.41 0 0 1 .821 0M35.261 39.887a.41.41 0 1 1-.821 0 .41.41 0 0 1 .821 0M36.227 40.709a.41.41 0 1 1-.822 0 .41.41 0 0 1 .822 0M35.04 41.183a.411.411 0 1 1-.822 0 .411.411 0 0 1 .822 0M29.898 44.429a.411.411 0 1 1-.822 0 .411.411 0 0 1 .822 0M27.673 41.37a.411.411 0 1 1-.822 0 .411.411 0 0 1 .822 0M34.85 29.871a.41.41 0 1 1-.821 0 .41.41 0 0 1 .821 0M36.346 31.027a.411.411 0 1 1-.822 0 .411.411 0 0 1 .822 0M24.737 27.33a.221.221 0 1 1-.442 0 .221.221 0 0 1 .442 0M20.496 35.99a.221.221 0 1 1-.443 0 .221.221 0 0 1 .443 0M17.73 38.932a.221.221 0 1 1-.443 0 .221.221 0 0 1 .443 0M11.425 58.46a.092.092 0 1 1-.092-.092c.05 0 .092.041.092.092M11.244 56.317a.093.093 0 1 1-.092-.092c.051 0 .092.04.092.092M13.698 59.354a.092.092 0 1 1-.092-.092c.05 0 .092.041.092.092M13.79 57.193a.092.092 0 1 1-.185 0 .092.092 0 0 1 .185 0M14.745 55.283a.092.092 0 1 1-.185 0 .092.092 0 0 1 .185 0M14.93 60.87a.092.092 0 1 1-.185 0 .092.092 0 0 1 .185 0M16.592 62.203a.093.093 0 1 1-.092-.092c.051 0 .092.041.092.092M16.685 57.43a.092.092 0 1 1-.092-.092c.05 0 .092.042.092.093M19.223 56.544a.092.092 0 1 1-.184 0 .092.092 0 0 1 .184 0M17.951 54.765a.092.092 0 1 1-.092-.092c.05 0 .092.04.092.092M15.85 53.512a.092.092 0 1 1-.186 0 .092.092 0 0 1 .185 0M13.126 52.972a.092.092 0 1 1-.185 0 .092.092 0 0 1 .185 0M11.381 54.028a.092.092 0 1 1-.184 0 .092.092 0 0 1 .184 0M9.572 52.5a.093.093 0 1 1-.092-.092c.051 0 .092.04.092.092M6.147 52.315a.092.092 0 1 1-.185 0 .092.092 0 0 1 .185 0M8.04 50.248a.092.092 0 1 1-.185 0 .092.092 0 0 1 .185 0M5.534 50.063a.092.092 0 1 1-.185 0 .092.092 0 0 1 .185 0M3.856 48.545a.093.093 0 1 1-.092-.092c.051 0 .092.04.092.092M7.736 47.939a.093.093 0 1 1-.092-.092c.05 0 .092.04.092.092M10.365 47.939a.092.092 0 1 1-.185 0 .092.092 0 0 1 .185 0M12.848 46.716a.092.092 0 1 1-.185 0 .092.092 0 0 1 .185 0M14.792 45.506a.092.092 0 1 1-.185 0 .092.092 0 0 1 .185 0M14.977 43.168a.092.092 0 1 1-.185 0 .092.092 0 0 1 .185 0M13.284 41.463a.092.092 0 1 1-.185 0 .092.092 0 0 1 .185 0M12.085 43.971a.092.092 0 1 1-.185 0 .092.092 0 0 1 .185 0M10.8 42.033a.092.092 0 1 1-.185 0 .092.092 0 0 1 .185 0M8.545 42.875a.092.092 0 1 1-.185 0 .092.092 0 0 1 .185 0M6.222 41.278a.093.093 0 1 1-.092-.092c.05 0 .092.04.092.092M8.881 40.298a.092.092 0 1 1-.185 0 .092.092 0 0 1 .185 0M7.04 38.84a.092.092 0 1 1-.092-.092c.05 0 .091.04.091.092M5.008 37.314a.093.093 0 1 1-.092-.092c.05 0 .092.04.092.092M7.224 36.083a.092.092 0 1 1-.185 0 .092.092 0 0 1 .185 0M9.436 37.359a.092.092 0 1 1-.185 0 .092.092 0 0 1 .185 0M11.254 39.295a.093.093 0 1 1-.092-.092c.05 0 .092.04.092.092M13.297 38.588a.092.092 0 1 1-.185 0 .092.092 0 0 1 .185 0M14.796 37.174a.093.093 0 1 1-.092-.092c.05 0 .092.04.092.092M12.113 36.083a.092.092 0 1 1-.185 0 .092.092 0 0 1 .185 0M10.175 34.85a.093.093 0 1 1-.092-.092c.05 0 .092.041.092.092M13.812 34.625a.092.092 0 1 1-.184 0 .092.092 0 0 1 .184 0M16.784 34.665a.092.092 0 1 1-.185 0 .092.092 0 0 1 .185 0M15.206 32.981a.092.092 0 1 1-.184 0 .092.092 0 0 1 .184 0M11.305 32.889a.092.092 0 1 1-.184 0 .092.092 0 0 1 .184 0M12.02 30.73a.092.092 0 1 1-.184 0 .092.092 0 0 1 .185 0M14.18 31.15a.093.093 0 1 1-.092-.092c.05 0 .092.04.092.091M18.154 32.25a.092.092 0 1 1-.092-.092c.05 0 .092.04.092.092M13.583 28.229a.092.092 0 1 1-.184 0 .092.092 0 0 1 .184 0M17.508 25.228a.092.092 0 1 1-.184 0 .092.092 0 0 1 .184 0M22.194 21.243a.092.092 0 1 1-.185 0 .092.092 0 0 1 .185 0M11.835 27.433a.092.092 0 1 1-.184 0 .092.092 0 0 1 .184 0M9.988 29.337a.092.092 0 1 1-.185 0 .092.092 0 0 1 .185 0M10.273 45.506a.092.092 0 1 1-.185 0 .092.092 0 0 1 .185 0M7.855 45.414a.092.092 0 1 1-.185 0 .092.092 0 0 1 .185 0M5.495 46.596a.092.092 0 1 1-.185 0 .092.092 0 0 1 .185 0M3.125 45.983a.093.093 0 1 1-.092-.092c.051 0 .092.04.092.092M5.982 43.98a.092.092 0 1 1-.184.001.092.092 0 0 1 .184 0M3.949 43.007a.093.093 0 1 1-.092-.092c.05 0 .092.041.092.092M1.92 43.723a.093.093 0 1 1-.092-.092c.05 0 .092.041.092.092M1.827 41.179a.092.092 0 1 1-.184 0 .092.092 0 0 1 .184 0M4.21 40.074a.092.092 0 1 1-.184 0 .092.092 0 0 1 .185 0M.783 38.934a.092.092 0 1 1-.185 0 .092.092 0 0 1 .185 0M2.796 37.892a.093.093 0 1 1-.092-.092c.05 0 .092.04.092.092M.561 36.134a.093.093 0 1 1-.092-.092c.051 0 .092.04.092.092M2.832 35.157a.093.093 0 1 1-.092-.092c.05 0 .092.04.092.092M.523 33.35a.092.092 0 1 1-.092-.092c.051 0 .092.04.092.092M2.924 32.51a.093.093 0 1 1-.092-.092c.05 0 .092.042.092.093M.561 30.63a.093.093 0 1 1-.092-.092c.051 0 .092.042.092.093M2.74 30.08a.092.092 0 1 1-.185 0 .092.092 0 0 1 .184 0M5.439 31.942a.093.093 0 1 1-.092-.092c.05 0 .092.041.092.092M5.193 34.39a.092.092 0 1 1-.092-.092c.05 0 .092.041.092.092M7.901 33.75a.092.092 0 1 1-.184 0 .092.092 0 0 1 .184 0M8.783 31.59a.092.092 0 1 1-.185 0 .092.092 0 0 1 .185 0M7.166 29.763a.092.092 0 1 1-.185 0 .092.092 0 0 1 .185 0M4.882 29.202a.093.093 0 1 1-.092-.092c.051 0 .092.04.092.092M3.37 27.092A.092.092 0 1 1 3.279 27c.052 0 .093.04.093.092M1.1 27.773a.092.092 0 1 1-.092-.092c.05 0 .092.041.092.092M1.615 24.96a.093.093 0 1 1-.092-.092c.05 0 .092.04.092.092M4.083 24.355a.092.092 0 1 1-.184 0 .092.092 0 0 1 .184 0M5.763 25.892a.092.092 0 1 1-.185 0 .092.092 0 0 1 .185 0M7.206 27.517a.092.092 0 1 1-.185 0 .092.092 0 0 1 .185 0M9.701 26.76a.092.092 0 1 1-.185 0 .092.092 0 0 1 .185 0M10.528 23.206a.092.092 0 1 1-.185 0 .092.092 0 0 1 .185 0M12.067 25.095a.093.093 0 1 1-.092-.092c.05 0 .092.04.092.092M12.581 22.147a.093.093 0 1 1-.092-.092c.05 0 .092.041.092.092M10.528 20.48a.092.092 0 1 1-.185 0 .092.092 0 0 1 .185 0M9.604 18.149a.092.092 0 1 1-.092-.092c.05 0 .092.04.092.092M12.16 18.241a.092.092 0 1 1-.092-.092c.05 0 .092.04.092.092M13.732 20.103a.092.092 0 1 1-.185 0 .092.092 0 0 1 .185 0M15.233 18.752a.093.093 0 1 1-.092-.092c.05 0 .092.04.092.092M17.423 18.426a.092.092 0 1 1-.185 0 .092.092 0 0 1 .185 0M17.238 16.003a.092.092 0 1 1-.185 0 .092.092 0 0 1 .185 0M14.45 16.45a.093.093 0 1 1-.092-.092c.05 0 .091.042.091.093M19.655 16.736a.092.092 0 1 1-.185 0 .092.092 0 0 1 .185 0M20.473 13.95a.092.092 0 1 1-.185 0 .092.092 0 0 1 .185 0M22.9 11.707a.092.092 0 1 1-.092-.092c.051 0 .092.04.092.092M23.933 8.982a.093.093 0 1 1-.092-.092c.05 0 .092.04.092.092M26.32 9.167a.092.092 0 1 1-.185 0 .092.092 0 0 1 .185 0M28.471 6.98a.093.093 0 1 1-.092-.092c.05 0 .092.041.092.093M25.086 12.04a.092.092 0 1 1-.092-.092c.05 0 .092.041.092.092M26.938 13.16a.092.092 0 1 1-.185 0 .092.092 0 0 1 .185 0M29.858 12.04a.092.092 0 1 1-.185 0 .092.092 0 0 1 .185 0M32.209 11.892a.092.092 0 1 1-.185 0 .092.092 0 0 1 .185 0M32.116 15.396a.092.092 0 1 1-.184 0 .092.092 0 0 1 .184 0M33.797 14.135a.093.093 0 1 1-.092-.092c.051 0 .092.041.092.092M26.028 16.266a.092.092 0 1 1-.092-.092c.05 0 .092.04.092.092M23.704 19.301a.092.092 0 1 1-.092-.092c.05 0 .092.041.092.092M20.845 18.752a.092.092 0 1 1-.185 0 .092.092 0 0 1 .185 0M27.872 10.57a.093.093 0 1 1-.092-.092c.05-.001.092.04.092.091M29.858 9.074a.092.092 0 1 1-.185 0 .092.092 0 0 1 .185 0M32.209 9.074a.092.092 0 1 1-.185 0 .092.092 0 0 1 .185 0M30.846 6.408a.092.092 0 1 1-.185 0 .092.092 0 0 1 .185 0M33.508 6.98a.092.092 0 1 1-.185 0 .092.092 0 0 1 .185 0M33.416 4.68a.092.092 0 1 1-.092-.092c.05 0 .092.041.092.092M36.048 4.972a.092.092 0 1 1-.092-.092c.05 0 .092.04.092.092M36.385 7.166a.092.092 0 1 1-.185 0 .092.092 0 0 1 .185 0M38.941 6.888a.092.092 0 1 1-.184 0 .092.092 0 0 1 .184 0M40.407 8.838a.092.092 0 1 1-.185 0 .092.092 0 0 1 .185 0M41.374 6.223a.092.092 0 1 1-.184 0 .092.092 0 0 1 .184 0M43.83 6.576a.093.093 0 1 1-.092-.092c.051 0 .092.04.092.092M42.875 8.838a.093.093 0 1 1-.092-.092c.051 0 .092.04.092.092M39.669 10.893a.092.092 0 1 1-.184 0 .092.092 0 0 1 .184 0M45.698 7.842a.092.092 0 1 1-.184 0 .092.092 0 0 1 .184 0M47.63 9.26a.093.093 0 1 1-.092-.092c.051 0 .093.04.093.092M49.242 13.273a.093.093 0 1 1-.092-.092c.05 0 .092.041.092.092M7.957 20.195a.092.092 0 1 1-.184 0 .092.092 0 0 1 .184 0M8.05 16.736a.092.092 0 1 1-.185 0 .092.092 0 0 1 .185 0M4.838 17.764a.092.092 0 1 1-.185 0 .092.092 0 0 1 .185 0M5.991 15.761a.092.092 0 1 1-.185 0 .092.092 0 0 1 .185 0M7.304 13.858a.092.092 0 1 1-.185 0 .092.092 0 0 1 .185 0M9.973 14.966a.092.092 0 1 1-.184 0 .092.092 0 0 1 .184 0M8.958 12.382a.093.093 0 1 1-.092-.092c.05 0 .092.041.092.092M11.544 12.636a.092.092 0 1 1-.185 0 .092.092 0 0 1 .185 0M13.61 13.345a.092.092 0 1 1-.184 0 .092.092 0 0 1 .184 0M12.163 15.818a.092.092 0 1 1-.092-.092c.05 0 .092.041.092.092M15.729 14.043a.092.092 0 1 1-.185 0 .092.092 0 0 1 .185 0M18.09 13.486a.092.092 0 1 1-.185 0 .092.092 0 0 1 .185 0M16.172 11.381a.092.092 0 1 1-.092-.092c.05 0 .092.041.092.092M13.883 10.57a.092.092 0 1 1-.184 0 .092.092 0 0 1 .184 0M15.844 8.549a.093.093 0 1 1-.092-.092c.05 0 .092.04.092.092M13.57 7.574a.093.093 0 1 1-.092-.092c.05 0 .091.041.091.092M15.404 5.96a.092.092 0 1 1-.185 0 .092.092 0 0 1 .185 0M17.611 5.774a.092.092 0 1 1-.092-.092c.05 0 .092.041.092.092M18.592 7.902a.092.092 0 1 1-.185 0 .092.092 0 0 1 .185 0M18.162 10.13a.092.092 0 1 1-.092-.092c.05 0 .092.041.092.092M20.057 11.522a.092.092 0 1 1-.185 0 .092.092 0 0 1 .185 0M21.557 9.702a.092.092 0 1 1-.184 0 .092.092 0 0 1 .184 0M20.898 7.443a.093.093 0 1 1-.092-.092c.05 0 .092.04.092.092M21.339 5.013a.092.092 0 1 1-.185 0 .092.092 0 0 1 .185 0M21.246 2.861a.092.092 0 1 1-.092-.092c.05 0 .092.041.092.092M23.748 2.226a.092.092 0 1 1-.185 0 .092.092 0 0 1 .185 0M26.264 1.14a.092.092 0 1 1-.092-.092c.05 0 .092.04.092.092M27.55 2.806a.092.092 0 1 1-.186 0 .092.092 0 0 1 .185 0M29.44.662a.093.093 0 1 1-.092-.092c.051 0 .093.041.093.092M32.307.57a.092.092 0 1 1-.092-.092c.05 0 .092.04.092.092M34.154 2.557a.093.093 0 1 1-.092-.092c.051 0 .092.041.092.092M35.06.43a.093.093 0 1 1-.092-.092c.05 0 .092.042.092.093M36.979 2.621a.092.092 0 1 1-.092-.092c.05 0 .092.04.092.092M37.91.616a.093.093 0 1 1-.092-.092c.051 0 .093.04.093.092M40.147 1.42a.092.092 0 1 1-.185 0 .092.092 0 0 1 .185 0M38.55 4.432a.092.092 0 1 1-.186 0 .092.092 0 0 1 .185 0M40.9 3.773a.092.092 0 1 1-.184 0 .092.092 0 0 1 .185 0M42.69 1.605a.092.092 0 1 1-.184 0 .092.092 0 0 1 .184 0M43.369 4.18a.092.092 0 1 1-.185 0 .092.092 0 0 1 .185 0M45.266 2.529a.092.092 0 1 1-.185 0 .092.092 0 0 1 .185 0M46.115 5.13a.092.092 0 1 1-.185-.001.092.092 0 0 1 .185 0M47.816 3.464a.092.092 0 1 1-.092-.092c.05 0 .092.041.092.092M50.088 4.83a.092.092 0 1 1-.184 0 .092.092 0 0 1 .184 0M48.328 6.576a.092.092 0 1 1-.185 0 .092.092 0 0 1 .185 0M50.408 7.706a.093.093 0 1 1-.092-.092c.05 0 .092.04.092.092M52.553 6.048a.092.092 0 1 1-.184 0 .092.092 0 0 1 .184 0M52.81 8.588a.092.092 0 1 1-.092-.092c.051 0 .092.04.092.092M54.893 7.85a.093.093 0 1 1-.092-.092c.05 0 .092.042.092.093M55.928 9.808a.093.093 0 1 1-.092-.092c.05 0 .092.041.092.092M57.538 11.03a.092.092 0 1 1-.185 0 .092.092 0 0 1 .185 0M54.586 11.7a.093.093 0 1 1-.092-.092c.05 0 .092.04.092.092M52.564 10.8a.092.092 0 1 1-.092-.092c.05 0 .092.042.092.093M52.81 14.514a.092.092 0 1 1-.092-.092c.051 0 .092.04.092.092M55.137 13.85a.093.093 0 1 1-.092-.092c.05 0 .092.04.092.092M57.258 14.699a.093.093 0 1 1-.092-.092c.05 0 .092.04.092.092M58.66 12.576a.093.093 0 1 1-.092-.092c.05 0 .091.04.091.092M59.258 15.736a.092.092 0 1 1-.184 0 .092.092 0 0 1 .184 0M60.698 13.85a.092.092 0 1 1-.185 0 .092.092 0 0 1 .185 0M58.474 17.787a.092.092 0 1 1-.184 0 .092.092 0 0 1 .184 0M55.476 16.675a.092.092 0 1 1-.185 0 .092.092 0 0 1 .185 0M52.718 16.982a.093.093 0 1 1-.092-.092c.05 0 .092.04.092.092M54.058 18.803a.092.092 0 1 1-.092-.092c.051 0 .092.04.092.092M56.678 19.298a.092.092 0 1 1-.184 0 .092.092 0 0 1 .184 0M59.22 20.189a.092.092 0 1 1-.185 0 .092.092 0 0 1 .184 0M58.382 22.436a.092.092 0 1 1-.184 0 .092.092 0 0 1 .184 0M55.58 21.335a.092.092 0 1 1-.184 0 .092.092 0 0 1 .185 0M53.042 21.186a.092.092 0 1 1-.092-.092c.05 0 .092.04.092.092M51.297 19.705a.092.092 0 1 1-.185 0 .092.092 0 0 1 .185 0M50.009 17.593a.092.092 0 1 1-.185 0 .092.092 0 0 1 .185 0M50.194 15.439a.092.092 0 1 1-.185 0 .092.092 0 0 1 .185 0M48.394 19.52a.092.092 0 1 1-.092-.092c.051 0 .092.041.092.092M45.576 20.41a.093.093 0 1 1-.092-.092c.051 0 .092.041.092.092M36.206 21.865a.092.092 0 1 1-.185 0 .092.092 0 0 1 .185 0M48.249 21.54a.093.093 0 1 1-.092-.092c.05 0 .092.04.092.092M50.009 22.646a.092.092 0 1 1-.185 0 .092.092 0 0 1 .185 0M49.346 24.843a.092.092 0 1 1-.092-.092c.051 0 .092.04.092.092M48.858 26.649a.093.093 0 1 1-.092-.092c.05 0 .092.04.092.092M49.161 28.977a.093.093 0 1 1-.092-.092c.051 0 .092.041.092.092M51.853 26.556a.092.092 0 1 1-.185 0 .092.092 0 0 1 .185 0M54.043 26.107a.092.092 0 1 1-.184 0 .092.092 0 0 1 .184 0M51.945 23.826a.092.092 0 1 1-.185 0 .092.092 0 0 1 .185 0M54.408 23.671a.092.092 0 1 1-.184 0 .092.092 0 0 1 .184 0M56.636 23.918a.092.092 0 1 1-.092-.092c.05 0 .092.041.092.092M59.22 25.056a.092.092 0 1 1-.185 0 .092.092 0 0 1 .184 0M57.026 26.292a.092.092 0 1 1-.185 0 .092.092 0 0 1 .185 0M60.109 27.442a.092.092 0 1 1-.092-.092c.05 0 .092.041.092.092M62.385 27.072a.092.092 0 1 1-.185 0 .092.092 0 0 1 .185 0M58.142 28.767a.092.092 0 1 1-.185 0 .092.092 0 0 1 .185 0M55.391 28.046a.092.092 0 1 1-.185 0 .092.092 0 0 1 .185 0M55.017 30.14a.092.092 0 1 1-.185 0 .092.092 0 0 1 .185 0M57.382 31.108a.092.092 0 1 1-.185 0 .092.092 0 0 1 .185 0M60.109 32.359a.092.092 0 1 1-.092-.092c.05 0 .092.04.092.092M60.327 30.14a.092.092 0 1 1-.184 0 .092.092 0 0 1 .184 0M62.57 29.878a.092.092 0 1 1-.185 0 .092.092 0 0 1 .185 0M62.908 32.62a.093.093 0 1 1-.092-.092c.05 0 .092.04.092.091M61.216 34.812a.092.092 0 1 1-.092-.092c.05 0 .092.04.092.092M63.615 35.249a.093.093 0 1 1-.092-.092c.05 0 .092.04.092.092M65.351 36.759a.093.093 0 1 1-.092-.092c.051 0 .092.04.092.092M67.323 35.585a.093.093 0 1 1-.092-.092c.051 0 .092.041.092.092M66.766 38.74a.093.093 0 1 1-.092-.092c.051 0 .092.04.092.092M63.998 38.832a.093.093 0 1 1-.092-.092c.05 0 .092.041.092.092M61.872 37.41a.093.093 0 1 1-.092-.092c.051 0 .092.042.092.093M61.872 40.225a.093.093 0 1 1-.092-.092c.051 0 .092.041.092.092M59.546 38.925a.092.092 0 1 1-.185 0 .092.092 0 0 1 .185 0M59.062 36.488a.092.092 0 1 1-.185 0 .092.092 0 0 1 .185 0M56.517 36.21a.092.092 0 1 1-.092-.092c.051-.001.092.04.092.091M58.583 34.09a.092.092 0 1 1-.092-.092c.05 0 .092.041.092.092M56.383 33.653a.092.092 0 1 1-.185 0 .092.092 0 0 1 .185 0M53.953 35.225a.092.092 0 1 1-.185 0 .092.092 0 0 1 .185 0M51.666 34.341a.093.093 0 1 1-.092-.092c.05 0 .092.041.092.092M50.012 35.683a.092.092 0 1 1-.185 0 .092.092 0 0 1 .185 0M47.92 34.888a.092.092 0 1 1-.185 0 .092.092 0 0 1 .184 0M49.467 32.433a.092.092 0 1 1-.185 0 .092.092 0 0 1 .185 0M52.684 37.316a.093.093 0 1 1-.092-.092c.05 0 .092.04.092.092M55.103 38.004a.092.092 0 1 1-.185 0 .092.092 0 0 1 .185 0M50.268 38.19a.092.092 0 1 1-.185-.001.092.092 0 0 1 .185 0M53.387 39.722a.093.093 0 1 1-.092-.092c.051 0 .092.041.092.092M50.796 40.423a.092.092 0 1 1-.185 0 .092.092 0 0 1 .185 0M47.87 37.614a.092.092 0 1 1-.092-.092c.05 0 .092.04.092.092M45.413 39.172a.092.092 0 1 1-.185 0 .092.092 0 0 1 .185 0M45.265 36.977a.093.093 0 1 1-.092-.092c.051 0 .092.04.092.092M48.343 40.376a.093.093 0 1 1-.092-.092c.05 0 .092.04.092.092M46.494 41.741a.093.093 0 1 1-.092-.092c.051 0 .092.041.092.092M47.41 44.072a.092.092 0 1 1-.185 0 .092.092 0 0 1 .184 0M49.782 42.79a.092.092 0 1 1-.092-.092c.05 0 .092.04.092.092M45.05 44.072a.092.092 0 1 1-.184 0 .092.092 0 0 1 .184 0M49.51 45.613a.093.093 0 1 1-.092-.092c.052 0 .093.04.093.092M51.801 44.605a.093.093 0 1 1-.092-.092c.051 0 .092.04.092.092M52.634 42.214a.092.092 0 1 1-.092-.092c.05 0 .092.04.092.092M54.113 44.855a.093.093 0 1 1-.092-.092c.05 0 .092.041.092.092M56.27 43.84a.093.093 0 1 1-.092-.092c.052 0 .093.042.093.093M55.812 46.668a.093.093 0 1 1-.092-.092c.05 0 .092.041.092.092M54.206 48.776a.092.092 0 1 1-.092-.092c.05 0 .092.04.092.092M52.541 47.107a.093.093 0 1 1-.092-.092c.05 0 .092.041.092.092M57.14 48.59a.093.093 0 1 1-.092-.092c.05 0 .092.042.092.093M51.462 49.614a.093.093 0 1 1-.092-.092c.05 0 .092.04.092.092M49.782 47.92a.092.092 0 1 1-.092-.092c.05 0 .092.042.092.093M47.084 46.616a.092.092 0 1 1-.092-.092c.05 0 .092.041.092.092M45.143 48.535a.092.092 0 1 1-.185 0 .092.092 0 0 1 .185 0M44.388 46.395a.093.093 0 1 1-.092-.092c.05 0 .092.041.092.092M41.929 46.136a.092.092 0 1 1-.185 0 .092.092 0 0 1 .185 0M39.963 47.422a.093.093 0 1 1-.092-.092c.051 0 .092.041.092.092M46.47 51.625a.093.093 0 1 1-.092-.092c.05 0 .092.04.092.092M44.066 50.583a.092.092 0 1 1-.185 0 .092.092 0 0 1 .185 0M43.88 52.693a.092.092 0 1 1-.092-.092c.052 0 .093.041.093.092M40.796 52.6a.093.093 0 1 1-.092-.092c.05 0 .092.042.092.093M27.563 56.038a.093.093 0 1 1-.092-.092c.05 0 .092.04.092.092M26.453 53.42a.093.093 0 1 1-.092-.092c.051 0 .092.04.092.091M28.763 52.018a.092.092 0 1 1-.185 0 .092.092 0 0 1 .185 0M26.36 51.045a.093.093 0 1 1-.092-.092c.052 0 .093.041.093.092M23.56 51.926a.092.092 0 1 1-.092-.092c.05 0 .091.04.091.092M23.374 50.063a.093.093 0 1 1-.092-.092c.051 0 .092.041.092.092M22.394 48.39a.093.093 0 1 1-.092-.092c.051 0 .092.042.092.093M20.228 50.789a.093.093 0 1 1-.092-.092c.051 0 .092.04.092.092M20.32 52.986a.093.093 0 1 1-.092-.092c.052 0 .093.04.093.092M23.828 53.962a.092.092 0 1 1-.185 0 .092.092 0 0 1 .185 0M23.282 56.596a.093.093 0 1 1-.092-.092c.05 0 .092.04.092.092M21.402 54.95a.093.093 0 1 1-.092-.092c.051 0 .092.04.092.092M25.292 56.359a.093.093 0 1 1-.092-.092c.051 0 .092.04.092.092M25.918 58.998a.092.092 0 1 1-.185 0 .092.092 0 0 1 .185 0M23.643 59.447a.092.092 0 1 1-.092-.092c.051 0 .092.04.092.092M21.402 57.817a.093.093 0 1 1-.092-.092c.051 0 .092.041.092.092M19.85 59.447a.092.092 0 1 1-.185 0 .092.092 0 0 1 .185 0M18.967 61.943a.092.092 0 1 1-.185 0 .092.092 0 0 1 .185 0M21.896 60.962a.092.092 0 1 1-.185 0 .092.092 0 0 1 .185 0M21.988 63.246a.092.092 0 1 1-.184 0 .092.092 0 0 1 .184 0M19.665 64.119a.092.092 0 1 1-.092-.092c.05 0 .092.04.092.092M24.467 62.743a.093.093 0 1 1-.092-.092c.05 0 .092.041.092.092M26.47 61.576a.092.092 0 1 1-.184 0 .092.092 0 0 1 .185 0M28.582 61.055a.092.092 0 1 1-.092-.092c.05 0 .092.04.092.092M26.954 64.026a.092.092 0 1 1-.185 0 .092.092 0 0 1 .185 0M29.374 63.743a.092.092 0 1 1-.092-.092c.051 0 .092.04.092.092M25.25 65.766a.092.092 0 1 1-.184 0 .092.092 0 0 1 .185 0M22.855 65.338a.093.093 0 1 1-.092-.092c.051 0 .092.04.092.092M27.82 66.497a.092.092 0 1 1-.184 0 .092.092 0 0 1 .185 0M30.135 66.868a.092.092 0 1 1-.185 0 .092.092 0 0 1 .185 0M31.574 65.153a.092.092 0 1 1-.185 0 .092.092 0 0 1 .185 0M31.86 62.743a.092.092 0 1 1-.185 0 .092.092 0 0 1 .185 0M30.823 60.72a.092.092 0 1 1-.184 0 .092.092 0 0 1 .184 0M33.749 59.095a.092.092 0 1 1-.185 0 .092.092 0 0 1 .185 0M36.158 58.116a.092.092 0 1 1-.185 0 .092.092 0 0 1 .185 0M34.114 61.147a.093.093 0 1 1-.092-.092c.051 0 .092.041.092.092M36.25 62.378a.092.092 0 1 1-.184 0 .092.092 0 0 1 .184 0M34.114 63.934a.093.093 0 1 1-.092-.092c.051 0 .092.04.092.092M37.637 64.663a.092.092 0 1 1-.185 0 .092.092 0 0 1 .185 0M38.921 62.743a.093.093 0 1 1-.092-.092c.05 0 .092.041.092.092M40.99 64.119a.092.092 0 1 1-.185 0 .092.092 0 0 1 .184 0M39.538 66.408a.092.092 0 1 1-.184 0 .092.092 0 0 1 .184 0M36.901 67.176a.093.093 0 1 1-.092-.092c.051 0 .092.041.092.092M35.113 65.859a.092.092 0 1 1-.185 0 .092.092 0 0 1 .185 0M33.1 67.269a.092.092 0 1 1-.184 0 .092.092 0 0 1 .185 0M42.285 66.14a.092.092 0 1 1-.092-.092c.05-.001.092.04.092.091M45.263 65.06a.092.092 0 1 1-.185 0 .092.092 0 0 1 .185 0M47.63 64.119a.092.092 0 1 1-.184 0 .092.092 0 0 1 .184 0M50.296 62.743a.092.092 0 1 1-.185 0 .092.092 0 0 1 .185 0M52.644 61.408a.092.092 0 1 1-.185 0 .092.092 0 0 1 .185 0M50.709 60.043a.092.092 0 1 1-.185 0 .092.092 0 0 1 .185 0M53.874 59.605a.092.092 0 1 1-.185 0 .092.092 0 0 1 .185 0M55.945 58.877a.093.093 0 1 1-.092-.092c.05 0 .092.04.092.092M30.916 58.429a.092.092 0 1 1-.185 0 .092.092 0 0 1 .185 0M28.582 58.116a.092.092 0 1 1-.092-.092c.05 0 .092.041.092.092M29.261 54.316a.093.093 0 1 1-.092-.092c.051 0 .092.04.092.092M43.07 54.564a.092.092 0 1 1-.092-.092c.052 0 .093.04.093.092M45.775 54.818a.093.093 0 1 1-.092-.092c.051 0 .092.041.092.092M44.814 57.729a.092.092 0 1 1-.184 0 .092.092 0 0 1 .184 0M46.989 57.435a.092.092 0 1 1-.185 0 .092.092 0 0 1 .185 0M42.842 56.924a.093.093 0 1 1-.092-.092c.05 0 .092.041.092.092M40.889 55.395a.092.092 0 1 1-.092-.092c.05 0 .092.04.092.092M38.625 55.853a.093.093 0 1 1-.092-.092c.05 0 .092.04.092.092M39.013 57.972a.092.092 0 1 1-.092-.092c.051 0 .092.04.092.092M41.349 58.637a.092.092 0 1 1-.185 0 .092.092 0 0 1 .185 0M40.085 60.72a.092.092 0 1 1-.092-.092c.05-.001.092.04.092.091M37.545 60.091a.092.092 0 1 1-.185 0 .092.092 0 0 1 .185 0M42.285 61.408a.092.092 0 1 1-.092-.092c.05 0 .092.041.092.092M44.066 60.091a.092.092 0 1 1-.185 0 .092.092 0 0 1 .185 0M43.312 63.568a.092.092 0 1 1-.184 0 .092.092 0 0 1 .184 0M45.531 62.332a.092.092 0 1 1-.185 0 .092.092 0 0 1 .185 0M46.63 59.858a.092.092 0 1 1-.092-.092c.05 0 .091.04.091.092M48.178 61.593a.092.092 0 1 1-.185 0 .092.092 0 0 1 .185 0M49.386 58.545a.093.093 0 1 1-.092-.092c.05 0 .092.04.092.092M48.692 55.853a.092.092 0 1 1-.185 0 .092.092 0 0 1 .185 0M51.09 55.945a.093.093 0 1 1-.092-.092c.052 0 .093.041.093.092M50.393 53.247a.093.093 0 1 1-.092-.092c.05 0 .092.04.092.092M52.736 53.782a.092.092 0 1 1-.185 0 .092.092 0 0 1 .185 0M52.955 51.44a.093.093 0 1 1-.092-.092c.051 0 .092.04.092.092M55.708 53.597a.093.093 0 1 1-.092-.092c.05 0 .092.041.092.092M54.333 55.523a.092.092 0 1 1-.185 0 .092.092 0 0 1 .185 0M52.644 57.527a.092.092 0 1 1-.185 0 .092.092 0 0 1 .185 0M56.228 56.805a.092.092 0 1 1-.185 0 .092.092 0 0 1 .185 0M58.342 56.038a.092.092 0 1 1-.185 0 .092.092 0 0 1 .185 0M57.987 53.69a.093.093 0 1 1-.092-.092c.05 0 .092.04.092.092M60.376 54.129a.093.093 0 1 1-.092-.092c.05 0 .092.04.092.092M59.85 51.217a.092.092 0 1 1-.184 0 .092.092 0 0 1 .184 0M57.69 50.947a.092.092 0 1 1-.185 0 .092.092 0 0 1 .184 0M55.311 51.04a.092.092 0 1 1-.185-.001.092.092 0 0 1 .185 0M62.01 51.868a.092.092 0 1 1-.185 0 .092.092 0 0 1 .184 0M62.876 49.561a.093.093 0 1 1-.092-.092c.051 0 .092.04.092.092M60.41 48.776a.092.092 0 1 1-.092-.092c.05 0 .092.04.092.092M59.186 47.049a.092.092 0 1 1-.185 0 .092.092 0 0 1 .185 0M63.873 47.51a.092.092 0 1 1-.185 0 .092.092 0 0 1 .185 0M61.96 46.226a.092.092 0 1 1-.185 0 .092.092 0 0 1 .185 0M60.267 44.37a.093.093 0 1 1-.092-.092c.05-.001.092.04.092.091M62.237 43.112a.092.092 0 1 1-.184 0 .092.092 0 0 1 .184 0M64.572 43.656a.092.092 0 1 1-.185 0 .092.092 0 0 1 .185 0M65.285 45.527a.092.092 0 1 1-.185 0 .092.092 0 0 1 .185 0M64.217 41.213a.092.092 0 1 1-.185 0 .092.092 0 0 1 .185 0M66.52 41.485a.092.092 0 1 1-.186 0 .092.092 0 0 1 .185 0M59.847 41.746a.093.093 0 1 1-.092-.092c.05 0 .092.041.092.092M57.555 41.839a.092.092 0 1 1-.185 0 .092.092 0 0 1 .185 0M55.054 41.478a.092.092 0 1 1-.092-.092c.05 0 .092.041.092.092M57.107 39.214a.093.093 0 1 1-.092-.092c.051 0 .092.04.092.092M47.905 53.597a.093.093 0 1 1-.092-.092c.051 0 .092.041.092.092M47.683 49.296a.092.092 0 1 1-.092-.092c.05 0 .092.041.092.092M49.418 51.094a.093.093 0 1 1-.092-.092c.051 0 .092.04.092.092M58.073 45.084a.093.093 0 1 1-.092-.092c.05 0 .092.041.092.092M54.18 32.804a.093.093 0 1 1-.092-.092c.05 0 .091.041.091.092M65.009 30.769a.092.092 0 1 1-.185 0 .092.092 0 0 1 .185 0M65.3 33.445a.092.092 0 1 1-.184 0 .092.092 0 0 1 .184 0M67.323 32.527a.093.093 0 1 1-.092-.092c.051 0 .092.04.092.092M67.138 29.423a.093.093 0 1 1-.092-.092c.051 0 .092.04.092.092M64.647 28.118a.092.092 0 1 1-.185 0 .092.092 0 0 1 .185 0M66.409 26.477a.093.093 0 1 1-.092-.092c.05 0 .092.04.092.092M46.67 23.58a.093.093 0 1 1-.092-.092c.05-.001.091.04.091.091M61.6 19.54a.092.092 0 1 1-.185 0 .092.092 0 0 1 .185 0M63.13 17.653a.092.092 0 1 1-.185 0 .092.092 0 0 1 .185 0M64.29 20.096a.092.092 0 1 1-.092-.092c.05 0 .092.041.092.092M63.748 22.251a.092.092 0 1 1-.092-.092c.051 0 .092.04.092.092M65.805 23.51a.092.092 0 1 1-.184.001.092.092 0 0 1 .184 0M64.15 25.173a.092.092 0 1 1-.185 0 .092.092 0 0 1 .185 0M61.73 24.404a.092.092 0 1 1-.184 0 .092.092 0 0 1 .184 0M61.086 22.119a.092.092 0 1 1-.184 0 .092.092 0 0 1 .184 0M61.305 16.49a.092.092 0 1 1-.092-.092c.05 0 .092.041.092.092M27.55 4.972a.092.092 0 1 1-.186 0 .092.092 0 0 1 .185 0M30.026 4.105a.092.092 0 1 1-.184 0 .092.092 0 0 1 .184 0M31.35 2.557a.092.092 0 1 1-.092-.092c.051 0 .093.041.093.092M25.63 6.796a.092.092 0 1 1-.185 0 .092.092 0 0 1 .184 0M18.878 4.012a.092.092 0 1 1-.185 0 .092.092 0 0 1 .185 0M23.301 6.316a.092.092 0 1 1-.185 0 .092.092 0 0 1 .185 0M24.882 4.197a.093.093 0 1 1-.092-.092c.051 0 .092.041.092.092M11.978 9.157a.093.093 0 1 1-.092-.092c.05 0 .092.04.092.092M10.238 10.57a.092.092 0 1 1-.184 0 .092.092 0 0 1 .184 0M2.76 22.332a.092.092 0 1 1-.184 0 .092.092 0 0 1 .185 0M5.763 22.517a.092.092 0 1 1-.185 0 .092.092 0 0 1 .185 0M3.624 20.195a.093.093 0 1 1-.092-.092c.05 0 .092.041.092.092M5.948 19.696a.092.092 0 1 1-.184 0 .092.092 0 0 1 .184 0M10.625 50.496a.092.092 0 1 1-.185 0 .092.092 0 0 1 .185 0M12.663 49.468a.092.092 0 1 1-.185 0 .092.092 0 0 1 .185 0M14.444 51.142a.092.092 0 1 1-.185 0 .092.092 0 0 1 .185 0M16.905 50.063a.093.093 0 1 1-.092-.092c.05 0 .092.041.092.092M19.181 48.637a.093.093 0 1 1-.092-.092c.051 0 .092.041.092.092M20.871 46.808a.092.092 0 1 1-.092-.092c.051 0 .092.041.092.092M16.998 47.195a.093.093 0 1 1-.092-.092c.05 0 .092.041.092.092M18.484 45.506a.092.092 0 1 1-.092-.092c.05 0 .092.041.092.092M20.964 44.429a.092.092 0 1 1-.185 0 .092.092 0 0 1 .185 0M19.523 42.218a.093.093 0 1 1-.092-.092c.051 0 .092.041.092.092M21.411 41.467a.093.093 0 1 1-.092-.092c.05 0 .092.041.092.092M17.766 52.203a.093.093 0 1 1-.092-.092c.05 0 .092.04.092.092M14.884 48.327a.092.092 0 1 1-.184 0 .092.092 0 0 1 .184 0M9.012 55.791a.093.093 0 1 1-.092-.092c.051 0 .092.041.092.092M7.736 53.843a.093.093 0 1 1-.092-.092c.05 0 .092.041.092.092M17.61 59.54a.092.092 0 1 1-.186-.001.092.092 0 0 1 .185 0M52.082 31.16a.158.158 0 1 1-.314.041.158.158 0 0 1 .314-.04M51.821 29.179a.158.158 0 1 1-.314.041.158.158 0 0 1 .314-.041M52.014 30.161a.221.221 0 1 1-.44.058.221.221 0 0 1 .44-.058M42.933 43.41a.158.158 0 1 1-.207.238.158.158 0 0 1 .207-.239M44.018 41.293a.158.158 0 1 1-.207.239.158.158 0 0 1 .207-.24M41.15 50.328a.158.158 0 1 1-.206.238.158.158 0 0 1 .206-.238M42.236 48.211a.158.158 0 1 1-.208.239.158.158 0 0 1 .208-.239M32.858 56.855a.158.158 0 1 1 .225.22.158.158 0 0 1-.225-.22M30.813 55.64a.158.158 0 1 1 .225.222.158.158 0 0 1-.225-.221M35.714 47.14a.159.159 0 0 1-.298-.106.158.158 0 0 1 .298.105M35.714 50.816a.158.158 0 1 1-.298-.106.158.158 0 0 1 .298.106M36.122 53.564a.158.158 0 1 1-.298-.104.158.158 0 0 1 .298.104M34.034 53.314a.158.158 0 1 1 0 0M36.438 52.746a.158.158 0 1 1-.298-.105.158.158 0 0 1 .298.105M34.815 51.3a.158.158 0 1 1-.298-.105.158.158 0 0 1 .298.105M38.081 47.37a.158.158 0 1 1-.298-.106.158.158 0 0 1 .298.106"/>
    </g>
</svg>
