<?xml version="1.0" encoding="UTF-8" standalone="no"?>
<svg width="16px" height="13px" viewBox="0 0 16 13" version="1.1" xmlns="http://www.w3.org/2000/svg" xmlns:xlink="http://www.w3.org/1999/xlink">
    <!-- Generator: sketchtool 46.1 (44463) - http://www.bohemiancoding.com/sketch -->
    <title>9F4181A7-2ECE-4C59-87C8-1594CE4FD460</title>
    <desc>Created with sketchtool.</desc>
    <defs></defs>
    <g id="Style-Guide" stroke="none" stroke-width="1" fill="none" fill-rule="evenodd">
        <g transform="translate(-416.000000, -242.000000)" id="Group-8" fill="#ADADAD">
            <g transform="translate(368.000000, 144.000000)">
                <path d="M62.0832117,100.051562 C62.7594745,99.6461898 63.2787737,99.0043212 63.5233285,98.2395328 C62.8905109,98.6148321 62.1895474,98.8874161 61.4435036,99.0343358 C60.8460146,98.397781 59.9948029,98 59.0527883,98 C57.2439124,98 55.7774015,99.4664526 55.7774015,101.275212 C55.7774015,101.531912 55.8064234,101.781898 55.8622482,102.021606 C53.140146,101.885022 50.7267737,100.58108 49.1113577,98.5995328 C48.8294307,99.0832701 48.6679124,99.6458978 48.6679124,100.246131 C48.6679124,101.382423 49.2461898,102.384934 50.1250219,102.972263 C49.5880876,102.95527 49.0830949,102.807942 48.6414599,102.562628 C48.6412263,102.576292 48.6412263,102.590015 48.6412263,102.603796 C48.6412263,104.190715 49.770219,105.514511 51.2685547,105.815358 C50.9936934,105.890219 50.7043504,105.930219 50.4056058,105.930219 C50.1945693,105.930219 49.9893723,105.909723 49.7894307,105.871474 C50.2061898,107.17273 51.4157664,108.11965 52.8489927,108.146102 C51.7280584,109.024526 50.3157956,109.548146 48.7813139,109.548146 C48.5169635,109.548146 48.2562336,109.532672 48,109.502423 C49.4494599,110.431708 51.1710949,110.973898 53.0207299,110.973898 C59.0451387,110.973898 62.3395036,105.983124 62.3395036,101.655007 C62.3395036,101.512993 62.3363504,101.371737 62.3300438,101.231299 C62.969927,100.769518 63.5252555,100.192642 63.9643796,99.5358248 C63.3769927,99.7963212 62.7457518,99.9723796 62.0832117,100.051562 Z" id="Fill-1"></path>
            </g>
        </g>
    </g>
</svg>