<?xml version="1.0" standalone="no"?>
<!DOCTYPE svg PUBLIC "-//W3C//DTD SVG 20010904//EN"
 "http://www.w3.org/TR/2001/REC-SVG-20010904/DTD/svg10.dtd">
<svg version="1.0" xmlns="http://www.w3.org/2000/svg"
 width="1050px" height="150px" viewBox="0 0 1050 150"
 preserveAspectRatio="xMidYMid meet">

<g transform="translate(0,150) scale(0.1,-0.1)"
fill="#8f8f8f" stroke="none">
<path d="M2800 1078 c-19 -7 -56 -33 -81 -59 -37 -37 -49 -57 -59 -101 -31
-136 16 -208 164 -253 88 -27 126 -51 126 -81 0 -77 -111 -92 -206 -28 -36 25
-38 25 -52 7 -19 -25 -62 -110 -62 -122 0 -30 153 -81 240 -81 71 0 114 13
172 49 55 35 85 87 94 163 14 119 -36 186 -173 232 -126 42 -151 72 -97 115
33 26 67 26 123 1 23 -11 47 -17 52 -14 9 5 69 117 69 128 0 3 -26 14 -57 26
-68 26 -201 35 -253 18z"/>
<path d="M6660 1078 c-19 -7 -56 -33 -81 -59 -37 -37 -49 -57 -59 -101 -31
-136 16 -208 164 -253 88 -27 126 -51 126 -81 0 -77 -111 -92 -206 -28 -36 25
-38 25 -52 7 -19 -25 -62 -110 -62 -122 0 -30 153 -81 240 -81 71 0 114 13
172 49 55 35 85 87 94 163 14 119 -36 186 -173 232 -126 42 -151 72 -97 115
33 26 67 26 123 1 23 -11 47 -17 52 -14 9 5 69 117 69 128 0 3 -26 14 -57 26
-68 26 -201 35 -253 18z"/>
<path d="M560 725 l0 -345 90 0 90 0 0 345 0 345 -90 0 -90 0 0 -345z"/>
<path d="M860 725 l0 -345 90 0 90 0 0 211 0 211 163 -210 162 -211 93 0 92
-1 0 345 0 345 -90 0 -90 0 0 -211 0 -211 -162 210 -163 211 -92 0 -93 1 0
-345z"/>
<path d="M1590 1063 c0 -4 64 -160 142 -345 l141 -338 72 0 72 0 144 336 c79
185 146 340 147 345 2 5 -41 9 -96 9 l-99 0 -83 -206 -83 -206 -82 204 -81
203 -97 3 c-53 1 -97 -1 -97 -5z"/>
<path d="M2360 725 l0 -345 90 0 90 0 0 345 0 345 -90 0 -90 0 0 -345z"/>
<path d="M3220 725 l0 -345 90 0 90 0 0 345 0 345 -90 0 -90 0 0 -345z"/>
<path d="M3520 725 l0 -347 193 4 c173 3 196 6 232 25 75 40 105 89 105 170 0
78 -48 147 -110 160 l-26 5 27 30 c33 34 43 78 37 149 -6 57 -30 95 -79 124
-30 17 -56 20 -206 23 l-173 4 0 -347z m268 189 c15 -10 22 -25 22 -46 0 -44
-25 -68 -72 -68 l-38 0 0 65 0 65 33 0 c18 0 43 -7 55 -16z m36 -268 c57 -24
57 -95 0 -116 -14 -6 -48 -10 -75 -10 l-49 0 0 70 0 70 45 0 c25 0 61 -6 79
-14z"/>
<path d="M4140 725 l0 -345 200 0 200 0 0 75 0 75 -110 0 -110 0 0 270 0 270
-90 0 -90 0 0 -345z"/>
<path d="M4590 725 l0 -345 195 0 195 0 0 75 0 75 -105 0 -105 0 0 60 0 60
100 0 100 0 0 75 0 75 -100 0 -100 0 0 60 0 60 105 0 105 0 0 75 0 75 -195 0
-195 0 0 -345z"/>
<path d="M5410 725 l0 -345 90 0 90 0 0 345 0 345 -90 0 -90 0 0 -345z"/>
<path d="M5710 725 l0 -345 90 0 90 0 0 211 0 211 163 -210 162 -211 93 0 92
-1 0 345 0 345 -90 0 -90 0 0 -211 0 -211 -162 210 -163 211 -92 0 -93 1 0
-345z"/>
<path d="M7020 995 l0 -75 75 0 75 0 0 -270 0 -270 90 0 90 0 0 270 0 270 75
0 75 0 0 75 0 75 -240 0 -240 0 0 -75z"/>
<path d="M7570 725 l0 -345 90 0 90 0 0 345 0 345 -90 0 -90 0 0 -345z"/>
<path d="M7810 995 l0 -75 75 0 75 0 0 -270 0 -270 90 0 90 0 0 270 0 270 75
0 75 0 0 75 0 75 -240 0 -240 0 0 -75z"/>
<path d="M8350 827 c0 -265 7 -309 54 -372 14 -18 52 -46 83 -62 53 -26 68
-28 168 -28 100 0 115 2 168 28 31 16 69 44 83 62 47 63 54 107 54 372 l0 243
-89 0 -90 0 -3 -232 c-2 -195 -6 -238 -20 -264 -40 -73 -166 -73 -206 0 -14
26 -18 69 -20 264 l-3 232 -90 0 -89 0 0 -243z"/>
<path d="M9010 995 l0 -75 75 0 75 0 0 -270 0 -270 90 0 90 0 0 270 0 270 75
0 75 0 0 75 0 75 -240 0 -240 0 0 -75z"/>
<path d="M9560 725 l0 -345 195 0 195 0 0 75 0 75 -105 0 -105 0 0 60 0 60
100 0 100 0 0 75 0 75 -100 0 -100 0 0 60 0 60 105 0 105 0 0 75 0 75 -195 0
-195 0 0 -345z"/>
</g>
</svg>
