<?xml version="1.0" encoding="UTF-8" standalone="no"?>
<svg width="22px" height="18px" viewBox="0 0 22 18" version="1.1" xmlns="http://www.w3.org/2000/svg" xmlns:xlink="http://www.w3.org/1999/xlink">
    <!-- Generator: sketchtool 39.1 (31720) - http://www.bohemiancoding.com/sketch -->
    <title>125B15D3-76AF-4D48-B066-1B660E74F5DA</title>
    <desc>Created with sketchtool.</desc>
    <defs></defs>
    <g id="Landing-Page-1200" stroke="none" stroke-width="1" fill="none" fill-rule="evenodd">
        <g transform="translate(-770.000000, -752.000000)" id="Link-to-Medium">
            <g transform="translate(770.000000, 752.000000)">
                <g id="Medium-Icon">
                    <path d="M14.2807018,0.65962046 C14.2807018,0.303818285 14.5554357,0.107544781 14.8864221,0.218576191 L22,2.60486882 L21.9999999,17.5369926 C21.9999999,17.8958084 21.7431651,18.0663999 21.419798,17.9149541 L14.2807018,14.5714289 L14.2807018,0.65962046 Z" id="Rectangle-1-Copy" fill="#D0D3D3"></path>
                    <path d="M14.39577,0.306188095 C14.47288,0.18186257 14.6409121,0.116753934 14.7837509,0.165047893 L22,2.60486877 L14.2807018,14.5928808 L10.0350877,7.33697881 L14.39577,0.306188095 Z" id="Rectangle-2" fill="#A6A8AB"></path>
                    <polygon id="Triangle-1" fill="#808184" points="7.71929825 2.85724802 14.2807018 14.5928808 7.71929825 11.4381408"></polygon>
                    <path d="M0,0.483747411 C0,0.129026651 0.274733911,-0.0507436291 0.605720386,0.0791139288 L7.71929825,2.87001906 L7.71929825,17.3621059 C7.71929825,17.7214583 7.46246338,17.891013 7.13909626,17.7377139 L0.580201986,14.6283298 C0.259765277,14.4764199 0,14.0633939 0,13.7109939 L0,0.483747411 Z" id="Rectangle-1" fill="#58595B"></path>
                </g>
            </g>
        </g>
    </g>
</svg>