<svg width="80" height="124" viewBox="0 0 80 124" fill="none" xmlns="http://www.w3.org/2000/svg">
<g filter="url(#filter0_d)">
<rect x="2" y="1" width="76" height="120" fill="white"/>
</g>
<rect x="9.5" y="8.5" width="61" height="33" rx="1.5" fill="#F5F4F4" stroke="#DBDBDB"/>
<path d="M33 22L41.5 30.5L46 20" stroke="#ADADAD"/>
<path fill-rule="evenodd" clip-rule="evenodd" d="M41.5 33C42.8807 33 44 31.8807 44 30.5C44 29.1193 42.8807 28 41.5 28C40.1193 28 39 29.1193 39 30.5C39 31.8807 40.1193 33 41.5 33Z" fill="#EC3435"/>
<path fill-rule="evenodd" clip-rule="evenodd" d="M33 25C34.6569 25 36 23.6569 36 22C36 20.3431 34.6569 19 33 19C31.3431 19 30 20.3431 30 22C30 23.6569 31.3431 25 33 25Z" fill="#FF4F13"/>
<path fill-rule="evenodd" clip-rule="evenodd" d="M46 23C47.6569 23 49 21.6569 49 20C49 18.3431 47.6569 17 46 17C44.3431 17 43 18.3431 43 20C43 21.6569 44.3431 23 46 23Z" fill="#F32A29"/>
<rect x="9" y="46" width="10" height="15" rx="2" fill="#DBDBDB"/>
<rect x="9" y="62" width="10" height="15" rx="2" fill="#DBDBDB"/>
<rect x="9" y="81" width="10" height="15" rx="2" fill="#DBDBDB"/>
<rect x="20" y="46" width="10" height="15" rx="2" fill="#DBDBDB"/>
<rect x="20" y="62" width="10" height="15" rx="2" fill="#DBDBDB"/>
<path d="M9 64C9 62.8954 9.89543 62 11 62H17C18.1046 62 19 62.8954 19 64V67H9V64Z" fill="#FF4F13"/>
<path d="M20 64C20 62.8954 20.8954 62 22 62H28C29.1046 62 30 62.8954 30 64V67H20V64Z" fill="#F9DEC7"/>
<rect x="20" y="81" width="10" height="15" rx="2" fill="#DBDBDB"/>
<rect x="31" y="81" width="10" height="15" rx="2" fill="#DBDBDB"/>
<path d="M31 83C31 81.8954 31.8954 81 33 81H39C40.1046 81 41 81.8954 41 83V86H31V83Z" fill="#FF5050"/>
<path d="M9 83C9 81.8954 9.89543 81 11 81H17C18.1046 81 19 81.8954 19 83V86H9V83Z" fill="#F6C9D0"/>
<path d="M20 83C20 81.8954 20.8954 81 22 81H28C29.1046 81 30 81.8954 30 83V86H20V83Z" fill="#BDC7EC"/>
<rect x="31" y="46" width="10" height="15" rx="2" fill="#DBDBDB"/>
<rect x="42" y="46" width="10" height="15" rx="2" fill="#DBDBDB"/>
<rect x="53" y="46" width="10" height="15" rx="2" fill="#DBDBDB"/>
<path d="M9 48C9 46.8954 9.89543 46 11 46H17C18.1046 46 19 46.8954 19 48V51H9V48Z" fill="#F52524"/>
<path d="M20 48C20 46.8954 20.8954 46 22 46H28C29.1046 46 30 46.8954 30 48V51H20V48Z" fill="#F32A29"/>
<path d="M31 48C31 46.8954 31.8954 46 33 46H39C40.1046 46 41 46.8954 41 48V51H31V48Z" fill="#EC3435"/>
<path d="M42 48C42 46.8954 42.8954 46 44 46H50C51.1046 46 52 46.8954 52 48V51H42V48Z" fill="#405EC3"/>
<path d="M53 48C53 46.8954 53.8954 46 55 46H61C62.1046 46 63 46.8954 63 48V51H53V48Z" fill="#D1DDF1"/>
<defs>
<filter id="filter0_d" x="0" y="0" width="80" height="124" filterUnits="userSpaceOnUse" color-interpolation-filters="sRGB">
<feFlood flood-opacity="0" result="BackgroundImageFix"/>
<feColorMatrix in="SourceAlpha" type="matrix" values="0 0 0 0 0 0 0 0 0 0 0 0 0 0 0 0 0 0 127 0"/>
<feOffset dy="1"/>
<feGaussianBlur stdDeviation="1"/>
<feColorMatrix type="matrix" values="0 0 0 0 0 0 0 0 0 0 0 0 0 0 0 0 0 0 0.15 0"/>
<feBlend mode="normal" in2="BackgroundImageFix" result="effect1_dropShadow"/>
<feBlend mode="normal" in="SourceGraphic" in2="effect1_dropShadow" result="shape"/>
</filter>
</defs>
</svg>
