<?xml version="1.0" standalone="no"?>
<!DOCTYPE svg PUBLIC "-//W3C//DTD SVG 20010904//EN"
 "http://www.w3.org/TR/2001/REC-SVG-20010904/DTD/svg10.dtd">
<svg version="1.0" xmlns="http://www.w3.org/2000/svg"
 width="700.000000pt" height="700.000000pt" viewBox="0 0 700.000000 700.000000"
 preserveAspectRatio="xMidYMid meet">
<metadata>
Created by potrace 1.11, written by Peter Selinger 2001-2013
</metadata>
<g transform="translate(0.000000,700.000000) scale(0.100000,-0.100000)"
fill="#000000" stroke="none">
<path d="M3297 6994 c-1 -1 -40 -4 -87 -8 -100 -7 -225 -22 -295 -36 -27 -5
-61 -12 -75 -14 -191 -35 -488 -121 -627 -182 -18 -8 -48 -21 -67 -29 -19 -8
-37 -15 -41 -15 -16 0 -302 -150 -413 -216 -136 -83 -324 -215 -403 -284 -10
-8 -42 -35 -73 -60 -61 -50 -308 -298 -374 -375 -274 -320 -502 -715 -644
-1115 -30 -86 -95 -304 -103 -350 -3 -14 -7 -36 -10 -50 -18 -79 -44 -223 -50
-275 -4 -33 -9 -69 -11 -80 -18 -98 -25 -571 -11 -715 37 -361 114 -678 239
-990 52 -129 168 -368 213 -439 14 -23 25 -43 25 -47 0 -13 206 -307 287 -409
120 -151 382 -411 538 -535 117 -93 314 -230 405 -283 157 -91 376 -197 520
-252 236 -91 590 -182 782 -201 35 -3 66 -8 69 -9 29 -18 535 -26 709 -12 105
9 111 9 290 38 452 74 956 273 1335 529 129 86 143 97 237 171 672 530 1131
1291 1282 2129 8 47 18 105 21 130 3 25 8 61 10 80 12 85 15 124 20 263 l6
147 -261 0 -260 0 -1 -57 c0 -86 -13 -266 -24 -338 -11 -76 -47 -270 -50 -276
-2 -3 -7 -20 -10 -37 -9 -51 -74 -259 -110 -352 -156 -405 -380 -749 -685
-1050 -125 -124 -147 -143 -265 -237 -381 -299 -811 -492 -1310 -588 -148 -28
-281 -38 -500 -39 -260 -1 -407 10 -545 39 -14 3 -41 8 -60 11 -19 3 -80 17
-135 30 -262 66 -519 169 -765 307 -100 56 -351 228 -390 267 -3 3 -34 30 -70
59 -339 285 -654 720 -820 1136 -72 179 -147 433 -165 555 -4 24 -8 47 -10 50
-5 8 -25 152 -33 240 -13 141 -7 537 11 660 23 156 26 175 43 250 9 36 17 74
20 86 2 11 18 68 35 125 64 216 139 396 248 594 402 734 1105 1269 1926 1465
116 28 145 34 230 46 22 3 51 7 65 10 14 2 57 7 95 10 39 3 86 7 105 9 19 2
70 4 113 4 l77 1 0 260 0 261 -101 -3 c-55 -2 -101 -4 -102 -4z"/>
<path d="M3327 6184 c-1 -1 -38 -4 -82 -8 -44 -3 -89 -8 -100 -10 -11 -2 -42
-7 -70 -10 -27 -4 -99 -18 -160 -32 -863 -193 -1586 -809 -1913 -1630 -33 -82
-89 -248 -98 -289 -1 -5 -11 -48 -22 -95 -25 -102 -50 -252 -60 -352 -17 -185
-5 -539 23 -688 3 -14 7 -41 10 -60 48 -299 209 -699 393 -977 183 -275 340
-443 646 -690 10 -8 71 -50 136 -93 356 -235 786 -386 1215 -427 102 -10 418
-10 510 0 480 51 896 204 1279 470 54 38 108 77 120 87 137 114 185 157 265
239 427 436 691 996 756 1601 2 19 7 90 11 158 l6 122 -261 0 -261 0 -1 -67
c0 -38 -2 -75 -3 -83 -2 -8 -6 -46 -9 -85 -35 -397 -215 -821 -487 -1147 -266
-320 -624 -563 -1010 -687 -76 -24 -256 -67 -320 -75 -25 -4 -70 -10 -100 -14
-112 -14 -549 -5 -580 13 -3 2 -26 6 -50 10 -122 18 -355 89 -475 144 -37 17
-68 31 -69 31 -8 0 -177 95 -236 133 -115 73 -272 200 -374 303 -144 144 -296
356 -389 539 -91 180 -168 401 -197 566 -6 35 -13 75 -16 89 -20 112 -26 438
-11 577 36 326 158 661 347 948 40 61 76 112 79 115 4 3 17 19 30 35 12 17 53
63 89 104 37 41 69 77 72 80 13 17 192 172 245 212 291 222 678 375 1052 416
32 3 67 7 78 8 11 1 53 3 93 4 l72 1 0 261 0 260 -85 -3 c-47 -1 -87 -3 -88
-4z"/>
<path d="M3377 5374 c-1 -1 -33 -4 -72 -8 -105 -9 -139 -15 -265 -47 -450
-112 -833 -384 -1107 -784 -117 -171 -238 -463 -278 -675 -42 -222 -39 -569 7
-745 6 -22 12 -49 14 -60 7 -40 42 -152 72 -230 57 -152 142 -304 257 -460 57
-77 249 -276 310 -322 17 -13 48 -37 70 -54 205 -159 524 -294 800 -339 39 -7
84 -14 100 -18 68 -12 401 -5 500 12 196 33 395 95 547 172 54 27 215 121 233
137 6 4 42 31 80 60 39 28 120 101 181 162 239 237 403 521 490 848 25 91 29
111 39 187 3 25 8 56 10 70 2 14 7 69 10 123 l6 97 -261 0 -260 0 -1 -37 c-2
-135 -39 -322 -89 -451 -103 -269 -317 -524 -565 -674 -150 -91 -347 -162
-510 -184 -122 -17 -352 -10 -466 14 -279 59 -507 185 -708 391 -198 205 -324
461 -368 751 -9 59 -9 311 -1 376 24 176 100 382 201 544 126 201 327 380 556
495 83 42 247 97 328 110 101 16 157 22 231 24 l32 1 0 259 0 259 -61 -2 c-33
0 -61 -2 -62 -2z"/>
<path d="M3339 4557 c-448 -79 -787 -398 -885 -835 -19 -80 -26 -298 -13 -367
29 -155 67 -268 124 -371 164 -293 440 -484 785 -543 78 -13 282 -6 367 13
245 54 484 202 619 382 16 21 31 41 34 44 3 3 17 23 31 45 94 145 151 321 166
513 l4 62 -258 0 -258 0 -13 -77 c-33 -207 -212 -403 -417 -457 -168 -44 -349
7 -488 137 -85 80 -131 150 -162 248 -21 66 -24 94 -21 167 6 148 54 249 172
368 88 88 183 138 298 156 l76 13 0 257 0 258 -59 -2 c-32 -2 -78 -6 -102 -11z"/>
</g>
</svg>
