<?xml version="1.0" encoding="UTF-8" standalone="no"?>
<svg width="242px" height="258px" viewBox="0 0 242 258" version="1.1" xmlns="http://www.w3.org/2000/svg" xmlns:xlink="http://www.w3.org/1999/xlink">
    <!-- Generator: sketchtool 41.2 (35397) - http://www.bohemiancoding.com/sketch -->
    <title>E0F68F30-40C9-4B21-806A-E55D3429B41F</title>
    <desc>Created with sketchtool.</desc>
    <defs></defs>
    <g id="Landing-Page" stroke="none" stroke-width="1" fill="none" fill-rule="evenodd">
        <g id="Landing-Page-992" transform="translate(-142.000000, -268.000000)">
            <g id="Group-16" transform="translate(32.000000, 182.000000)">
                <g id="Group-21">
                    <g id="sunburst-graphic" transform="translate(110.791837, 86.171429)">
                        <g id="Rainbow-Wheel" transform="translate(0.046724, 0.233370)">
                            <g id="Group-5" transform="translate(0.000000, 18.494283)">
                                <path d="M120.302374,216.424678 C66.4867714,216.424678 22.8610984,173.06238 22.8610984,119.571671 C22.8610984,66.0821411 66.4867714,22.719843 120.302374,22.719843 C174.117977,22.719843 217.74365,66.0821411 217.74365,119.571671 C217.74365,173.06238 174.117977,216.424678 120.302374,216.424678 M120.302374,0.0521679549 C53.8927166,0.0521679549 0.0557440163,53.5629384 0.0557440163,119.571671 C0.0557440163,185.581583 53.8927166,239.092353 120.302374,239.092353 C186.712031,239.092353 240.549004,185.581583 240.549004,119.571671 C240.549004,53.5629384 186.712031,0.0521679549 120.302374,0.0521679549" id="Fill-1" fill="#258AAD"></path>
                                <g id="Group-4">
                                    <path d="M114.049867,22.9392152 C115.90787,22.8223897 117.776558,22.7480463 119.66068,22.7362457 L119.465976,0.073290938 C117.140207,0.088631652 114.833434,0.180675936 112.542095,0.325822691 L114.049867,22.9392152 Z" id="Fill-16" fill="#D7D7D7"></path>
                                    <path d="M240.422683,124.520821 C240.490355,122.877004 240.548529,121.232008 240.548529,119.571671 C240.548529,53.5629384 186.712744,0.0521679549 120.301899,0.0521679549 C120.021715,0.0521679549 119.745092,0.0710488337 119.466095,0.0734089435 L119.660799,22.7351837 C119.875686,22.7340036 120.087012,22.719843 120.301899,22.719843 C174.117502,22.719843 217.743175,66.0821411 217.743175,119.571671 C217.743175,120.916933 217.695686,122.249215 217.641074,123.580317 L240.422683,124.520821 Z" id="Fill-18" fill="#7F7F7F"></path>
                                    <path d="M93.2010554,26.544755 C99.8851174,24.6236256 106.858862,23.3916482 114.049867,22.9396872 L112.540908,0.326294713 C103.668795,0.889180911 95.0626201,2.41145176 86.8161736,4.78454221 L93.2010554,26.544755 Z" id="Fill-20" fill="#666666"></path>
                                    <path d="M62.2170449,41.8085294 C71.4263288,35.0007925 81.8952556,29.7932102 93.2011742,26.544519 L86.8162923,4.7843062 C72.8676167,8.79767299 59.9541991,15.2266122 48.5936683,23.6297833 L62.2170449,41.8085294 Z" id="Fill-22" fill="#A5A5A5"></path>
                                    <path d="M22.8615733,119.572143 C22.8615733,87.7177401 38.3358296,59.4601449 62.2168075,41.8088834 L48.5934308,23.6301373 C19.1396312,45.4139512 0.0562189053,80.2763137 0.0562189053,119.572143 C0.0562189053,125.512539 0.507363404,131.346731 1.35029128,137.054656 L23.9098907,133.744602 C23.2272378,129.117607 22.8615733,124.387947 22.8615733,119.572143" id="Fill-24" fill="#969696"></path>
                                    <path d="M23.9068039,133.716163 L1.34601728,137.026217 C9.84771663,194.759224 59.8594587,239.092707 120.302137,239.092707 L120.302137,216.425032 C71.3220907,216.425032 30.7962553,180.49944 23.9068039,133.716163" id="Fill-26" fill="#282828"></path>
                                    <path d="M217.640955,123.588696 C215.519388,175.213738 172.762762,216.424796 120.30178,216.424796 L120.30178,239.092471 C185.039829,239.092471 237.804739,188.236824 240.422565,124.529199 L217.640955,123.588696 Z" id="Fill-28" fill="#989898"></path>
                                </g>
                            </g>
                            <g id="Group-7" transform="translate(83.320397, 0.000000)">
                                <path d="M5.04747588,22.840553 C8.89763801,21.7891241 12.8225951,20.9229638 16.8164112,20.2526926 L13.686893,1.97128175 C9.07334692,2.74539778 4.53934471,3.74490429 0.0920097332,4.96036086 L5.04747588,22.840553 Z" id="Fill-30" fill="#AEAEAE"></path>
                                <path d="M16.8162925,20.2523386 C19.5433422,19.7944773 22.2941364,19.4062392 25.0805473,19.1336465 L23.2344166,0.678767591 C20.0146695,0.9926622 16.8376625,1.44226313 13.6867743,1.97092773 L16.8162925,20.2523386 Z" id="Fill-32" fill="#939393"></path>
                                <path d="M25.0810222,19.1336465 C26.2729935,19.0168211 27.476837,18.9436577 28.678306,18.8622339 L27.3901697,0.364872982 C26.0011196,0.458097321 24.6108822,0.54424133 23.2348914,0.678767591 L25.0810222,19.1336465 Z" id="Fill-34" fill="#7D7D7D"></path>
                                <path d="M28.6871632,18.8232807 C30.041784,18.7312364 31.4011536,18.6604331 32.7676465,18.6144109 L32.1122998,0.0840085056 C30.5344812,0.138291032 28.9637861,0.219714822 27.399027,0.325919765 L28.6871632,18.8232807 Z" id="Fill-36" fill="#878787"></path>
                                <path d="M32.9505623,18.6524201 C34.3227204,18.6158384 35.6964133,18.5816168 37.0777805,18.5721764 L36.8705754,0.029973395 C35.2758638,0.0405938893 33.6888263,0.0807157567 32.1033238,0.123197734 L32.9505623,18.6524201 Z" id="Fill-38" fill="#CDCDCD"></path>
                            </g>
                            <path d="M120.302374,41.2144802 C66.4867714,41.2144802 22.8610984,84.5767784 22.8610984,138.066308 C22.8610984,191.557017 66.4867714,234.919316 120.302374,234.919316 C174.117977,234.919316 217.74365,191.557017 217.74365,138.066308 C217.74365,84.5767784 174.117977,41.2144802 120.302374,41.2144802" id="Fill-41" fill="#707070"></path>
                            <path d="M101.249948,72.7561682 C107.154005,71.0568891 113.382174,70.1199255 119.826417,70.0750834 L119.624589,41.231001 C110.444985,41.2935439 101.576434,42.629366 93.1673383,45.0484786 L101.249948,72.7561682 Z" id="Fill-43" fill="#979797"></path>
                            <path d="M188.718318,138.066426 C188.718318,175.622854 158.087981,206.069451 120.302255,206.069451 C82.5177163,206.069451 51.8861921,175.622854 51.8861921,138.066426 C51.8861921,100.509998 82.5177163,70.0634009 120.302255,70.0634009 C158.087981,70.0634009 188.718318,100.509998 188.718318,138.066426" id="Fill-46" fill="#7B7B7B"></path>
                        </g>
                    </g>
                </g>
            </g>
        </g>
    </g>
</svg>